<?xml version="1.0" encoding="UTF-8"?>
<svg width="26px" height="25px" viewBox="0 0 26 25" version="1.1" xmlns="http://www.w3.org/2000/svg" xmlns:xlink="http://www.w3.org/1999/xlink">
    <title>1A1849ED-5C5B-4FCA-9FE3-503A36C6FB24</title>
    <defs>
        <polygon id="path-1" points="0 0 12.5424072 0 12.5424072 12.4825684 0 12.4825684"></polygon>
    </defs>
    <g id="Page-1" stroke="none" stroke-width="1" fill="none" fill-rule="evenodd">
        <g id="Papco_v2" transform="translate(-236.000000, -3260.000000)">
            <g id="Group-10" transform="translate(236.000006, 3260.000005)">
                <path d="M18.6043155,24.9999756 C18.2995792,24.9701904 17.9950382,24.9381104 17.6900577,24.9108643 C15.9470402,24.7548096 14.2631534,24.3487549 12.6259464,23.7338135 C10.6997257,23.0103271 8.93537023,22.0020752 7.33190343,20.7181396 C5.29889562,19.0902588 3.65534093,17.1300049 2.40089758,14.8454834 C1.38424718,12.9940674 0.693915153,11.0252686 0.308954216,8.95148926 C0.0865909345,7.75388184 -0.0325985187,6.54187012 0.00778234071,5.32341309 C0.0239444501,4.83547363 0.192743278,4.37243652 0.556219841,4.00964355 C1.08610265,3.48088379 1.60187414,2.93708496 2.14762609,2.42526855 C2.86427648,1.75334473 3.72882726,1.55349121 4.66876867,1.79406738 C6.02872961,2.14216309 6.79806554,3.06550293 7.12428625,4.40744629 C7.33585851,5.27770996 7.6087589,6.13347168 7.80851476,7.00617676 C8.03468664,7.99431152 7.79132726,8.88464355 7.10309484,9.63586426 C6.80665929,9.95944824 6.48942297,10.264624 6.17096593,10.5669189 C6.05455968,10.677417 6.03488195,10.7737061 6.08034093,10.9271729 C6.60036047,12.6805908 7.4700382,14.2353271 8.70792883,15.5820068 C10.1781925,17.1815186 11.9574405,18.2869873 14.037421,18.9137939 C14.2160343,18.9676025 14.3324894,18.9459717 14.4610538,18.8042725 C14.706757,18.5335693 14.9731632,18.2814697 15.234003,18.0247314 C16.0870304,17.1851318 17.0981144,16.9404541 18.2445987,17.2462646 C19.1745792,17.4943115 20.1011905,17.7550049 21.0278995,18.0150146 C22.750507,18.4983154 23.9636905,20.6354736 22.9037784,22.4533447 C22.8151554,22.6053467 22.6949894,22.7432373 22.5711612,22.8697021 C22.1156437,23.3347412 21.6372745,23.7782471 21.1969425,24.2570068 C20.8518741,24.6322021 20.4411808,24.8539795 19.951923,24.9543213 C19.9239445,24.960083 19.8997745,24.9843506 19.8738468,24.9999756 L18.6043155,24.9999756 Z" id="Fill-1" fill="#DA1A35"></path>
                <g id="Group-5" transform="translate(12.500800, 0.000000)">
                    <mask id="mask-2" fill="white">
                        <use xlink:href="#path-1"></use>
                    </mask>
                    <g id="Clip-4"></g>
                    <path d="M0.78125,0 C1.25239258,0.0639160156 1.725,0.118847656 2.19443359,0.193554687 C3.27055664,0.36484375 4.29760742,0.697460937 5.28232422,1.16196289 C7.89794922,2.39575195 9.85996094,4.30932617 11.1769043,6.87744141 C11.7779785,8.04956055 12.1827148,9.29345703 12.3530762,10.6040527 C12.4332031,11.2205078 12.4789063,11.8414551 12.5424316,12.4825684 L10.9444824,12.4825684 C10.8813965,9.49931641 9.84316406,6.90317383 7.72822266,4.78549805 C5.6121582,2.66669922 3.01899414,1.62172852 0,1.55537109 L0,0 L0.78125,0 Z" id="Fill-3" fill="#DA1A35" mask="url(#mask-2)"></path>
                </g>
                <path d="M12.5027286,6.23619629 L12.5027286,4.71617676 C16.483588,4.53385254 20.408295,8.08116699 20.2929142,12.4863428 L18.7708439,12.4863428 C18.7055118,9.0226709 15.9625431,6.30968262 12.5027286,6.23619629" id="Fill-6" fill="#DA1A35"></path>
                <path d="M15.6159025,12.4905566 L14.0761075,12.4905566 C14.0263028,12.0828418 13.9014005,11.7104297 13.6019376,11.4087207 C13.3005704,11.1049609 12.929965,10.9743457 12.5067716,10.9252246 L12.5067716,9.39709961 C14.0380704,9.28962891 15.6621427,10.6929004 15.6159025,12.4905566" id="Fill-8" fill="#DA1A35"></path>
            </g>
        </g>
    </g>
</svg>