<?xml version="1.0" encoding="UTF-8"?>
<svg width="30px" height="30px" viewBox="0 0 30 30" version="1.1" xmlns="http://www.w3.org/2000/svg" xmlns:xlink="http://www.w3.org/1999/xlink">
    <title>A955E993-39F1-4782-9656-BDF6D3642E65</title>
    <defs>
        <polygon id="path-1" points="-5.07938332e-16 0 29.8421812 0 29.8421812 29.9036325 -5.07938332e-16 29.9036325"></polygon>
    </defs>
    <g id="Page-1" stroke="none" stroke-width="1" fill="none" fill-rule="evenodd">
        <g id="Papco_v2" transform="translate(-1321.000000, -3281.000000)">
            <g id="Group-4" transform="translate(1321.000000, 3281.096368)">
                <g id="Group-10">
                    <mask id="mask-2" fill="white">
                        <use xlink:href="#path-1"></use>
                    </mask>
                    <g id="Clip-9"></g>
                    <path d="M1.16375809,14.8677924 C1.13869004,22.4987239 7.24725664,28.7033333 14.8152393,28.733956 C22.4627836,28.7647398 28.6424645,22.6301967 28.6829302,14.9679715 C28.722812,7.34924252 22.5411665,1.17179365 14.8665123,1.16115287 C7.34371286,1.1509312 1.18878441,7.30751763 1.16375809,14.8677924 M1.06031625e-13,14.906565 C-0.0256603181,6.71352838 6.6247113,0.0369553291 14.8478497,1.77619421e-15 C23.0916153,-0.0366536772 29.8492478,6.66707991 29.8421812,14.8746809 C29.8351035,23.1675031 23.208895,29.8671035 14.9780951,29.9036639 C6.7097735,29.9401221 0.0262020901,23.2481974 1.06031625e-13,14.906565" id="Fill-8" fill="#DA1A35" mask="url(#mask-2)"></path>
                </g>
                <path d="M15.9588054,22.5116153 L12.9191575,22.5116153 L12.9191575,15.0340031 C12.3614402,14.9716126 11.9239493,14.9226055 11.4277204,14.8671035 L11.4277204,11.9396694 C11.8571568,11.9052267 12.2714667,11.8719649 12.8162185,11.8282718 C12.9374272,10.4009656 12.6013038,8.58691695 14.2074669,7.86735939 C15.4248583,7.32178676 16.8958648,7.34501099 18.3711932,7.0954489 L18.3711932,9.75541072 C17.6288142,9.91168225 16.8469491,9.92900201 16.2473882,10.2692961 C15.9790396,10.4214345 16.0768709,11.2210959 15.9910229,11.855826 L18.4381821,11.855826 C18.3631388,12.8115622 18.3305283,13.6505868 18.20598,14.4754406 C18.1786736,14.6561173 17.8362638,14.8907214 17.6156522,14.9194565 C17.1076363,14.9855865 16.5852797,14.9405157 15.9588054,14.9405157 L15.9588054,22.5116153 Z" id="Fill-25" fill="#DA1A35"></path>
            </g>
        </g>
    </g>
</svg>