<?xml version="1.0" encoding="UTF-8"?>
<svg width="16px" height="20px" viewBox="0 0 16 20" version="1.1" xmlns="http://www.w3.org/2000/svg" xmlns:xlink="http://www.w3.org/1999/xlink">
    <title>F8878626-F909-4657-BB67-A40E1ADA5126</title>
    <defs>
        <polygon id="path-1" points="1.11963136e-16 0 15.999979 0 15.999979 19.9999543 1.11963136e-16 19.9999543"></polygon>
        <polygon id="path-3" points="0 20 16 20 16 0 0 0"></polygon>
    </defs>
    <g id="Page-1" stroke="none" stroke-width="1" fill="none" fill-rule="evenodd">
        <g id="Papco_v2" transform="translate(-1505.000000, -34.000000)">
            <g id="Group-9" transform="translate(1505.000000, 34.000000)">
                <g id="Group-3" transform="translate(0.000014, 0.000046)">
                    <mask id="mask-2" fill="white">
                        <use xlink:href="#path-1"></use>
                    </mask>
                    <g id="Clip-2"></g>
                    <path d="M2.3478619,3.78449511 L3.88452972,3.78449511 L3.88452972,2.32246206 C3.38226837,2.80029882 2.88017167,3.27805545 2.3478619,3.78449511 M3.50246204,17.9221816 C3.39815698,18.7208196 3.40342575,18.7275497 4.14944973,18.7276298 C7.49733734,18.7279503 10.8453073,18.7227425 14.1931126,18.7349342 C14.5662892,18.7362828 14.6949623,18.6342898 14.6901875,18.262452 C14.6718291,16.8263779 14.682202,15.3899833 14.682202,13.9536689 C14.6822843,10.6023219 14.6830252,7.25097483 14.6823666,3.89954769 C14.682202,3.35336842 14.6726524,3.34655821 14.1045315,3.36466537 C14.0376017,3.36674849 13.9709189,3.37956772 13.8527834,3.39334839 C13.8527834,3.60630783 13.8527834,3.81534138 13.8527834,4.02445505 C13.852701,8.1072192 13.8537713,12.1899833 13.8517131,16.2727475 C13.8512192,17.3619012 13.2775826,17.9205792 12.1629921,17.9215407 C9.83996133,17.9235437 7.51701288,17.9221015 5.19398211,17.9221816 C4.63648106,17.9221816 4.0788977,17.9221816 3.50246204,17.9221816 M1.3470438,5.08740948 C1.33576536,5.21648309 1.32300507,5.29460027 1.32300507,5.37271744 C1.32094696,8.9890219 1.32473388,12.6053264 1.31213076,16.2216308 C1.31082105,16.6009197 1.48337306,16.6513153 1.8103657,16.6505141 C5.21184651,16.6425021 8.61340964,16.639057 12.0148905,16.6541424 C12.4267596,16.6559623 12.5508225,16.5467585 12.5496779,16.1400685 C12.5362511,11.3538491 12.5375683,6.56754969 12.5481058,1.78125024 C12.5488467,1.41141549 12.4577136,1.27008349 12.0488904,1.27346731 C9.91792256,1.29147558 7.78679004,1.28154068 5.65565751,1.2832232 C5.52517329,1.28330332 5.39468907,1.29972796 5.2313574,1.31070442 C5.2313574,2.31501088 5.23308621,3.28326326 5.23078113,4.25159576 C5.22929929,4.88911204 5.03114438,5.08412455 4.37592424,5.08644804 C3.38053955,5.08997333 2.38515487,5.08740948 1.3470438,5.08740948 M2.11784744,17.9205792 C1.87375551,17.9205792 1.66959092,17.9273093 1.46592028,17.9193774 C0.655683237,17.8878902 0.0411313647,17.3224821 0.0186567953,16.5236839 C-0.0112269729,15.4607295 0.00375607337,14.3965732 0.00375607337,13.3328977 C0.00375607337,10.4609899 0.0112475965,7.58900187 0.000874718314,4.71717413 C-0.000442472571,4.34117012 0.119668871,4.06499586 0.393562251,3.80284263 C1.58175075,2.66537643 2.75989568,1.51773497 3.9272561,0.360078486 C4.18814222,0.101370424 4.4657402,-0.00158400814 4.83364807,4.97379949e-14 C7.26542942,0.0103538987 9.69729309,0.00450512556 12.1290744,0.00578704844 C13.2788998,0.0063478897 13.8378826,0.545957304 13.853442,1.66179105 C13.8551708,1.79094479 13.868178,1.91993828 13.8782216,2.08682861 C14.0859261,2.08682861 14.2604539,2.08442501 14.4348994,2.08722921 C15.3634367,2.10205145 15.9758481,2.6791571 15.9902549,3.5859573 C16.0063081,4.59627278 15.9976641,5.60690873 15.9975817,6.61738444 C15.9971701,10.5131481 15.9994752,14.4088316 15.9928892,18.3045151 C15.9909958,19.471065 15.4288023,19.9993774 14.2257954,19.9996178 C10.8239852,19.9999639 7.42217514,19.9999639 4.02036503,19.9999639 C2.6811112,19.9999639 2.18823483,19.5382057 2.14764889,18.2479503 C2.14476753,18.1571741 2.13143097,18.0667184 2.11784744,17.9205792" id="Fill-1" fill="#DA1A35" mask="url(#mask-2)"></path>
                </g>
                <mask id="mask-4" fill="white">
                    <use xlink:href="#path-3"></use>
                </mask>
                <g id="Clip-5"></g>
                <path d="M7.70284997,7.0598698 L10.057164,7.0598698 L10.057164,3.65019529 L7.70284997,3.65019529 L7.70284997,7.0598698 Z M11.3953476,5.36052078 C11.3953476,6.09153731 11.3986406,6.82255383 11.3943597,7.55349024 C11.3908198,8.14525789 11.1829506,8.35677516 10.590297,8.35965949 C9.45685428,8.36502754 8.32341152,8.36638958 7.18996877,8.35989985 C6.59081156,8.35645468 6.37009977,8.14037056 6.36861793,7.56671007 C6.364831,6.09145719 6.36507798,4.61612419 6.36861793,3.14087131 C6.37001744,2.57089634 6.60274861,2.35040561 7.19630775,2.34936405 C8.32975051,2.34752128 9.46327559,2.3476014 10.5967183,2.35248873 C11.1641806,2.35497246 11.389091,2.57313971 11.3937835,3.12765148 C11.4000401,3.87188783 11.3953476,4.61620431 11.3953476,5.36052078 L11.3953476,5.36052078 Z" id="Fill-4" fill="#DA1A35" mask="url(#mask-4)"></path>
                <path d="M6.93507587,10.4797356 C8.151337,10.479976 9.36759813,10.4784537 10.5837769,10.480697 C11.1019269,10.4816585 11.3914619,10.7171317 11.3877924,11.1239019 C11.3840527,11.5263455 11.0905661,11.7560501 10.5710167,11.7562904 C8.11116268,11.7575724 5.6513087,11.7576525 3.19145472,11.7576525 C2.68417158,11.7576525 2.36648161,11.518013 2.35627338,11.1308723 C2.34565353,10.7299509 2.67050573,10.4798157 3.20429734,10.4795754 C4.44789018,10.4791748 5.69148302,10.4794952 6.93507587,10.4797356" id="Fill-6" fill="#DA1A35" mask="url(#mask-4)"></path>
                <path d="M6.87829671,15.1409034 C5.63536246,15.1411437 4.39242821,15.1439479 3.14949396,15.1397016 C2.66180404,15.138019 2.36650631,14.8980591 2.35852084,14.5178888 C2.35028839,14.1248192 2.66065149,13.866672 3.16447701,13.8661913 C5.63667965,13.8637076 8.10896462,13.8636274 10.5811673,13.8665919 C11.08631,13.8672328 11.3653898,14.0861212 11.3842421,14.4730215 C11.4036706,14.8716995 11.1268136,15.1354552 10.6480147,15.1382594 C9.39149692,15.1454702 8.13489681,15.140663 6.87829671,15.1409034" id="Fill-7" fill="#DA1A35" mask="url(#mask-4)"></path>
                <path d="M3.84592571,8.3594031 C3.57351417,8.3594031 3.30052636,8.36957837 3.02877342,8.3569995 C2.63904956,8.33889234 2.36927241,8.08242764 2.35898185,7.74119579 C2.3486913,7.40148623 2.61435224,7.10672409 2.99460878,7.0940651 C3.56602265,7.07507661 4.13908301,7.07507661 4.71041455,7.09470606 C5.10227884,7.10816625 5.36234172,7.38562243 5.36053998,7.72853681 C5.35863712,8.07441562 5.09898587,8.33296345 4.7038286,8.35483625 C4.4187391,8.37053981 4.13192078,8.35788082 3.84592571,8.35788082 C3.84592571,8.35836154 3.84592571,8.35892238 3.84592571,8.3594031" id="Fill-8" fill="#DA1A35" mask="url(#mask-4)"></path>
            </g>
        </g>
    </g>
</svg>