<?xml version="1.0" encoding="UTF-8"?>
<svg width="21px" height="20px" viewBox="0 0 21 20" version="1.1" xmlns="http://www.w3.org/2000/svg" xmlns:xlink="http://www.w3.org/1999/xlink">
    <title>AB5B40E2-05E5-4812-9F9A-F665132866E7</title>
    <defs>
        <polygon id="path-1" points="-2.00605136e-16 0 21 0 21 20 -2.00605136e-16 20"></polygon>
    </defs>
    <g id="Page-1" stroke="none" stroke-width="1" fill="none" fill-rule="evenodd">
        <g id="Papco_v2" transform="translate(-732.000000, -96.000000)">
            <g id="Group-5" transform="translate(732.000000, 96.000000)">
                <mask id="mask-2" fill="white">
                    <use xlink:href="#path-1"></use>
                </mask>
                <g id="Clip-2"></g>
                <path d="M8.88232241,17.0526764 L12.1040923,17.0526764 L12.1040923,16.2507274 L8.88232241,16.2507274 L8.88232241,17.0526764 Z M15.0461968,18.9945747 C14.759491,18.2962852 14.2674176,18.0666771 13.6993987,18.0616391 C11.5598906,18.0422507 9.42008296,18.0446933 7.2805749,18.0689671 C6.7139041,18.075379 6.2375591,18.3187269 5.99369443,18.9945747 L15.0461968,18.9945747 Z M0.968404474,15.2002397 L20.024002,15.2002397 L20.024002,0.966216553 L0.968404474,0.966216553 L0.968404474,15.2002397 Z M13.0982753,16.193478 L13.0982753,17.0302347 C13.5473577,17.0984759 13.995841,17.1200017 14.4173614,17.240149 C15.3078869,17.4940308 15.8697643,18.106828 16.0465213,19.0377789 C16.1952667,19.8214082 16.0499665,19.990103 15.2526129,19.9923929 C12.5822348,20 9.91200654,19.9974309 7.24177825,19.9986522 C6.76753036,19.9988049 6.29343227,20.0014002 5.81933419,19.9989575 C4.96610742,19.9943776 4.75864269,19.7035508 5.00130901,18.8577869 C5.28966251,17.8526408 6.12027038,17.1943495 7.21601368,17.1128264 C7.43321501,17.0966439 7.65266326,17.1105364 7.90566537,17.1105364 L7.90566537,16.19531 C7.65026655,16.19531 7.3858801,16.1954626 7.12134385,16.19531 C5.17477049,16.1945466 3.22819714,16.1985159 1.28177357,16.1908827 C0.344062977,16.1872187 0.006127656,15.8579204 0.00477950978,14.9210155 C-0.00166163331,10.3421353 -0.00106245721,5.76310237 0.00343136355,1.18406946 C0.0043301277,0.380288424 0.353949382,0.00412195401 1.13662316,0.00335862919 C7.37554431,-0.00244263941 13.6146153,-0.000610659853 19.8535364,0.0074805832 C20.6946299,0.00854923795 20.9951167,0.339221548 20.9960154,1.23246425 C21.0011084,5.83699221 21.0011084,10.4413675 20.9972138,15.0458955 C20.9964648,15.8736449 20.6534365,16.1933253 19.7753439,16.19531 C17.8287706,16.1997373 15.8821972,16.1946993 13.9356239,16.193478 C13.6674925,16.1933253 13.3993612,16.193478 13.0982753,16.193478 L13.0982753,16.193478 Z" id="Fill-1" fill="#DA1A35" mask="url(#mask-2)"></path>
                <path d="M11.6427267,4.03843101 C11.6202576,3.13312778 11.1758187,2.61635687 10.4878148,2.62139482 C9.79966102,2.62658543 9.36181309,3.18152257 9.40720068,4.03843101 L11.6427267,4.03843101 Z M7.9098596,5.04785175 C7.77654292,7.08913497 7.64562294,9.09698457 7.51350461,11.1196427 L13.5105084,11.1196427 C13.3753942,9.06400894 13.2444742,7.07203649 13.1114571,5.04785175 L7.9098596,5.04785175 Z M12.6656701,4.02392784 C14.0293949,4.17170752 14.0181604,4.17247085 14.0942557,5.56981326 C14.1977634,7.47308735 14.3008217,9.37681945 14.4462717,11.2770402 C14.4961531,11.9284616 14.2704135,12.1318114 13.6550596,12.1246361 C11.5350248,12.1000571 9.41454058,12.1003624 7.29450575,12.1179189 C6.7441625,12.1224988 6.52920807,11.9309043 6.57070102,11.357342 C6.73038145,9.15270728 6.87313515,6.94669856 7.00300657,4.73992651 C7.03131764,4.25964254 7.22275441,4.04011032 7.69610353,4.07354395 C7.89248349,4.08743646 8.09066099,4.07583392 8.14788231,3.93248152 C8.54753277,3.30105924 8.87678003,2.60124304 9.37604352,2.06630501 C9.63608595,1.78753879 10.197514,1.6938025 10.6202327,1.70021443 C11.7716994,1.7177709 12.4442745,2.5186513 12.6656701,4.02392784 L12.6656701,4.02392784 Z" id="Fill-3" fill="#DA1A35" mask="url(#mask-2)"></path>
                <path d="M10.4549649,13.7693721 C7.93438088,13.7693721 5.41379682,13.7692194 2.89336255,13.7695248 C2.54614,13.7695248 2.08342626,13.8267741 2.15742451,13.3135145 C2.18558578,13.1179507 2.65728717,12.8513977 2.92796497,12.8500237 C7.9939989,12.8233073 13.0601826,12.8242233 18.1262166,12.8541456 C18.3826639,12.8556723 18.8365398,13.1504683 18.8549645,13.3428262 C18.9058945,13.8759322 18.4177157,13.7687614 18.0913146,13.7698301 C15.5458647,13.7773107 13.0004148,13.7739521 10.4549649,13.7739521 L10.4549649,13.7693721 Z" id="Fill-4" fill="#DA1A35" mask="url(#mask-2)"></path>
            </g>
        </g>
    </g>
</svg>