<?xml version="1.0" encoding="UTF-8"?>
<svg width="20px" height="20px" viewBox="0 0 20 20" version="1.1" xmlns="http://www.w3.org/2000/svg" xmlns:xlink="http://www.w3.org/1999/xlink">
    <title>3CE6B8B7-CA8C-4BDB-B065-99F9592DC9E2</title>
    <defs>
        <polygon id="path-1" points="0 0 20 0 20 20 0 20"></polygon>
    </defs>
    <g id="Page-1" stroke="none" stroke-width="1" fill="none" fill-rule="evenodd">
        <g id="Papco_v2" transform="translate(-1094.000000, -96.000000)">
            <g id="Group-8" transform="translate(1094.000000, 96.000000)">
                <g id="Group-3">
                    <mask id="mask-2" fill="white">
                        <use xlink:href="#path-1"></use>
                    </mask>
                    <g id="Clip-2"></g>
                    <path d="M10.0075449,18.6307724 C9.99937499,18.6307724 9.99096944,18.6307724 9.98279956,18.6307724 C7.66769834,18.6242691 5.49360615,17.720618 3.86108292,16.0861638 C2.22859896,14.4517487 1.33187578,12.2810823 1.33606385,9.97396313 C1.34028133,7.66672648 2.24305337,5.50221074 3.87816897,3.87911777 C5.50880685,2.26049095 7.6768109,1.36980741 9.98495986,1.36980741 C9.99132294,1.36980741 9.99780386,1.36980741 10.0041669,1.36980741 C12.3316801,1.37482204 14.5080897,2.27545647 16.1324431,3.90591467 C17.7511796,5.5307706 18.6373369,7.69669669 18.627714,10.0047169 C18.6178942,12.3246468 17.7156328,14.4971154 16.0869981,16.1218538 C14.4646479,17.7403631 12.3065813,18.6307724 10.0075449,18.6307724 M17.0893013,2.93335172 C15.2068896,1.04738272 12.6927261,0.00559444066 10.0099801,-7.83535108e-06 C10.0026351,-7.83535108e-06 9.99572211,-7.83535108e-06 9.98841635,-7.83535108e-06 C7.32837326,-7.83535108e-06 4.82607175,1.03135943 2.9409106,2.90530116 C1.05064328,4.7842967 0.00619448431,7.28616348 -6.07514036e-13,9.95002613 C-0.00617817453,12.6310482 1.02707631,15.1516415 2.90952726,17.047483 C4.79225315,18.9435204 7.30327444,19.9920863 9.98012863,19.9999922 C9.99022315,19.9999922 10.0001998,19.9999922 10.0102551,19.9999922 C12.6665667,19.9999922 15.1672578,18.9645975 17.0544614,17.0826246 C18.948578,15.1938348 19.9946372,12.6817038 20,10.0090655 C20.0053602,7.33219616 18.9716737,4.81932072 17.0893013,2.93335172" id="Fill-1" fill="#DA1A35" mask="url(#mask-2)"></path>
                </g>
                <path d="M11.2277011,14.1548869 C11.0683884,14.193476 10.9179133,14.2299495 10.7721516,14.2442099 C10.6604049,14.2549443 10.6023516,14.2089508 10.5891934,14.0988641 C10.5607559,13.8612963 10.5394278,13.6109568 10.5757602,13.3897257 C10.6939878,12.6704013 10.835154,11.9407342 10.971646,11.2351608 L11.0359053,10.9027461 C11.1501265,10.3101193 11.2458477,9.67079381 11.1732222,9.01137066 C11.1190574,8.51970238 10.8907328,8.11520238 10.5301974,7.87242403 C10.1817205,7.63771609 9.74105744,7.57812824 9.28963215,7.70455163 C8.99641977,7.78662694 8.72457478,7.92119909 8.46168524,8.0513051 C8.35948315,8.10192146 8.25374602,8.15426161 8.1503263,8.20150878 C8.06481748,8.24068553 7.95585953,8.33314267 7.93036792,8.46497245 C7.90251962,8.60910374 7.8810344,8.75323502 7.86029547,8.89258674 C7.85322537,8.94002979 7.84619456,8.9871986 7.83900664,9.03401483 L7.78378137,9.39150272 L8.13371159,9.29657744 C8.2024093,9.27796848 8.26678641,9.25814504 8.32908176,9.23898761 C8.4534368,9.20067274 8.5608629,9.16764674 8.66530386,9.15467923 C8.74468526,9.14476751 8.8507759,9.14253444 8.90509777,9.18758771 C8.95957674,9.23279768 8.97662352,9.3375955 8.98141547,9.41755526 C8.99480936,9.64407526 9.00498244,9.883837 8.96955343,10.1058125 C8.91519229,10.4464152 8.85112941,10.7928553 8.78922684,11.1278557 C8.71267346,11.5419148 8.63348845,11.9700384 8.57091814,12.3955763 C8.47668955,13.0366256 8.39895783,13.6158147 8.40221792,14.2128293 C8.40477101,14.6670838 8.55626734,15.0518779 8.84044571,15.3256058 C9.12552749,15.6002741 9.52098123,15.7444054 9.98737155,15.7444054 C10.0096031,15.7444054 10.032031,15.7440919 10.0545767,15.7433868 C10.5563175,15.7287738 10.93932,15.4929298 11.3097142,15.2648427 C11.3731879,15.2257443 11.4366223,15.1866459 11.5006066,15.1488403 C11.5889042,15.0967352 11.6453471,15.0021234 11.6684427,14.867512 C11.6905564,14.7378762 11.708703,14.6109827 11.7262211,14.4882811 C11.7323092,14.4458526 11.738201,14.4044428 11.7440534,14.364365 L11.7933084,14.0291295 L11.4612498,14.1005095 C11.3807293,14.1178257 11.3029583,14.1366697 11.2277011,14.1548869" id="Fill-4" fill="#DA1A35"></path>
                <path d="M10.537837,4.21581064 C10.1688569,4.20938565 9.8175519,4.34901161 9.55018463,4.60910609 C9.28847344,4.86359829 9.14282957,5.1996565 9.14008009,5.55538144 C9.13740917,5.90358444 9.27354769,6.23447131 9.52331829,6.48716139 C9.78337979,6.75015494 10.1322888,6.89628424 10.5057467,6.89863485 C10.5090461,6.89863485 10.5123061,6.89863485 10.5156055,6.89863485 C10.8887099,6.89863485 11.2292919,6.76512046 11.4756453,6.5220287 C11.7232556,6.2776441 11.8605332,5.93731562 11.8621579,5.56372609 C11.865443,4.8084766 11.2961043,4.22901321 10.537837,4.21581064" id="Fill-6" fill="#DA1A35"></path>
            </g>
        </g>
    </g>
</svg>