<?xml version="1.0" encoding="UTF-8"?>
<svg width="18px" height="20px" viewBox="0 0 18 20" version="1.1" xmlns="http://www.w3.org/2000/svg" xmlns:xlink="http://www.w3.org/1999/xlink">
    <title>5D56EEB7-3A46-4F88-8220-57D34D5CC0DA</title>
    <defs>
        <polygon id="path-1" points="-4.13448779e-16 0 17.9962673 0 17.9962673 20 -4.13448779e-16 20"></polygon>
        <polygon id="path-3" points="0 0 3.25622973 0 3.25622973 3.31424558 0 3.31424558"></polygon>
    </defs>
    <g id="Page-1" stroke="none" stroke-width="1" fill="none" fill-rule="evenodd">
        <g id="Papco_v2" transform="translate(-1248.000000, -96.000000)">
            <g id="Group-11" transform="translate(1248.000000, 96.000000)">
                <g id="Group-3" transform="translate(0.003733, 0.000000)">
                    <mask id="mask-2" fill="white">
                        <use xlink:href="#path-1"></use>
                    </mask>
                    <g id="Clip-2"></g>
                    <path d="M3.26023013,4.99570192 C2.19167042,4.99570192 1.14507659,4.99573155 0.0984536607,4.99552413 C0.0697961974,4.99552413 0.041167828,4.99279802 -4.13448779e-16,4.99069417 L-4.13448779e-16,3.3379865 L1.62695838,3.3379865 C1.62695838,3.04001019 1.62663835,2.75575336 1.62704566,2.47152617 C1.62788939,1.86455057 1.83035364,1.33067636 2.21733122,0.875918768 C2.70977409,0.297211806 3.33986006,0.00157640606 4.09368227,0.00122082575 C7.89025792,-0.00070523429 11.6868336,-1.63071917e-06 15.4834092,0.000420770039 C16.7809086,0.000509665117 17.827066,0.922321999 17.9672694,2.23512452 C18.0209767,2.73797435 17.9836202,3.25116564 17.9837074,3.75967512 C17.9842311,8.35599516 17.9830092,12.9523448 17.9844057,17.5486945 C17.9847257,18.6366221 17.1701846,19.6886657 16.1262092,19.9203559 C15.9062014,19.969189 15.6768253,19.9956797 15.451726,19.9959464 C11.6793855,20.0004504 7.90707417,19.9981391 4.13473372,19.9999984 C3.3567345,20.0003911 2.71186884,19.7066225 2.2060428,19.1079142 C1.83713251,18.6712912 1.63961422,18.1607075 1.62890767,17.5817338 C1.62335074,17.2818907 1.62794757,16.9818698 1.62794757,16.673878 L3.26005557,16.673878 C3.26005557,16.9465192 3.26119023,17.2118414 3.25982282,17.477134 C3.25723346,17.9703535 3.60211222,18.3298748 4.08521595,18.3299341 C7.88665028,18.3306156 11.6880555,18.330586 15.4894898,18.330023 C16.0185037,18.3299341 16.3509594,17.9902364 16.3509303,17.4520359 C16.3507848,13.1459287 16.3501738,8.83985107 16.3497374,4.53377346 C16.3496792,3.86217114 16.349912,3.19059846 16.3497956,2.51902577 C16.3496792,2.02310976 16.0068662,1.66957403 15.5213185,1.66948513 C11.7199133,1.66892213 7.91847897,1.66886287 4.11707374,1.66951477 C3.58931091,1.66960366 3.25918275,2.01030887 3.25903728,2.55090947 C3.25883363,3.30645838 3.25976463,4.06197765 3.26023013,4.81752655 C3.26025923,4.87083397 3.26023013,4.92411175 3.26023013,4.99570192" id="Fill-1" fill="#DA1A35" mask="url(#mask-2)"></path>
                </g>
                <path d="M11.4419388,8.35573736 C11.4529363,7.41934624 10.7404274,6.67505737 9.82335947,6.66495297 C8.91420508,6.65490782 8.18453079,7.38313631 8.17548259,8.30951192 C8.1664344,9.23683575 8.87260085,9.98773248 9.76496807,9.99967405 C10.7020817,10.0122379 11.4308831,9.29778814 11.4419388,8.35573736 M12.1769373,10.6355405 C13.7826862,11.6244983 14.6518947,13.0595908 14.7284407,14.993118 L13.0947616,14.993118 C13.0730867,13.0025498 11.4573586,11.6152828 9.72566225,11.664827 C8.06987184,11.7121785 6.58256404,13.0087132 6.52510365,14.9941551 L4.8894462,14.9941551 C4.96191903,13.0613983 5.83336776,11.6288542 7.44505186,10.631481 C6.7664955,9.86609438 6.44058595,8.97047646 6.56106367,7.93615259 C6.66286313,7.06213618 7.06368939,6.34199715 7.72252011,5.77105369 C8.95354,4.70422385 10.8255852,4.75904248 12.0257364,5.88528386 C13.2229492,7.0087695 13.5668097,9.10275234 12.1769373,10.6355405" id="Fill-4" fill="#DA1A35"></path>
                <polygon id="Fill-6" fill="#DA1A35" points="3.25561584 14.995536 0.000971735304 14.995536 0.000971735304 13.3376131 1.63130501 13.3376131 1.63130501 11.6710971 3.25561584 11.6710971"></polygon>
                <g id="Group-10" transform="translate(0.000000, 6.675837)">
                    <mask id="mask-4" fill="white">
                        <use xlink:href="#path-3"></use>
                    </mask>
                    <g id="Clip-9"></g>
                    <polygon id="Fill-8" fill="#DA1A35" mask="url(#mask-4)" points="1.62790393 0 3.25622973 0 3.25622973 3.31424558 -1.45469362e-05 3.31424558 -1.45469362e-05 1.66064896 1.62790393 1.66064896"></polygon>
                </g>
            </g>
        </g>
    </g>
</svg>