<?xml version="1.0" encoding="UTF-8"?>
<svg width="31px" height="30px" viewBox="0 0 31 30" version="1.1" xmlns="http://www.w3.org/2000/svg" xmlns:xlink="http://www.w3.org/1999/xlink">
    <title>6149CF8B-7607-4F5A-9781-9AE52F695BA1</title>
    <defs>
        <polygon id="path-1" points="0 0 29.8331965 0 29.8331965 29.8954713 0 29.8954713"></polygon>
    </defs>
    <g id="Page-1" stroke="none" stroke-width="1" fill="none" fill-rule="evenodd">
        <g id="Papco_v2" transform="translate(-1466.000000, -3281.000000)">
            <g id="Group-25" transform="translate(1466.681356, 3281.000000)">
                <g id="Group-5">
                    <mask id="mask-2" fill="white">
                        <use xlink:href="#path-1"></use>
                    </mask>
                    <g id="Clip-4"></g>
                    <path d="M28.680138,14.9644551 C28.6748304,7.35635419 22.5228487,1.17004861 14.9540803,1.16157652 C7.34346831,1.15292566 1.13451652,7.37977524 1.15176797,15.0034246 C1.16889501,22.5422465 7.34071803,28.7322915 14.8476052,28.7393834 C22.5236345,28.7466591 28.6854386,22.6105414 28.680138,14.9644551 M1.72484249e-12,15.0111004 C-0.0152966491,6.75016237 6.65805944,0.0155287449 14.8745186,-4.6862504e-05 C23.1239812,-0.015568108 29.8024449,6.6415202 29.8331965,14.9105277 C29.8637368,23.1940995 23.2202409,29.894684 14.9754932,29.8954713 C6.68654448,29.8962585 0.0151528709,23.2657403 1.72484249e-12,15.0111004" id="Fill-3" fill="#DA1A35" mask="url(#mask-2)"></path>
                </g>
                <path d="M18.9714131,21.7101301 C18.9714131,20.1281269 18.9818249,18.6915704 18.9686629,17.2554075 C18.9537328,15.618296 18.4451276,14.8985416 17.3564099,14.926883 C16.2498154,14.9558149 15.7628195,15.6574623 15.7474965,17.2796158 C15.7361025,18.4910154 15.7239227,19.7030054 15.7535864,20.9138145 C15.7677307,21.4887126 15.6091968,21.7670098 14.9823296,21.7181995 C14.4053603,21.6733256 13.8221046,21.7087524 13.1826647,21.7087524 L13.1826647,12.7676199 L15.5367073,12.7676199 C15.5838549,13.0238737 15.6341457,13.2968569 15.6891513,13.5960165 C15.7773567,13.575154 15.8883501,13.5820426 15.9472847,13.5298864 C17.0171433,12.5841878 18.2781463,12.5729694 19.5562404,12.8546124 C20.8001524,13.1287764 21.4619874,14.0408195 21.5327089,15.2492669 C21.6472384,17.2073845 21.6427201,19.1737684 21.6362373,21.1364128 C21.6356479,21.328308 21.2857731,21.6589581 21.0702691,21.6837568 C20.4312221,21.7573658 19.7784236,21.7101301 18.9714131,21.7101301" id="Fill-17" fill="#DA1A35"></path>
                <polygon id="Fill-19" fill="#DA1A35" points="11.2475093 21.6402999 8.18114443 21.6402999 8.18114443 20.5058553 8.18114443 12.7843886 11.2475093 12.7843886"></polygon>
                <path d="M9.73212511,11.3485406 C8.88169948,11.3347635 8.18194987,10.6100888 8.19648706,9.75827117 C8.21102425,8.91196442 8.94731329,8.19732725 9.78438041,8.21681198 C10.6351989,8.23669035 11.3349486,8.96412053 11.3184469,9.81160818 C11.3019452,10.6653939 10.5827472,11.3623177 9.73212511,11.3485406" id="Fill-21" fill="#DA1A35"></path>
            </g>
        </g>
    </g>
</svg>