<?xml version="1.0" encoding="UTF-8"?>
<svg width="31px" height="30px" viewBox="0 0 31 30" version="1.1" xmlns="http://www.w3.org/2000/svg" xmlns:xlink="http://www.w3.org/1999/xlink">
    <title>9DC23BBB-31DF-4E8A-BE48-C94B0492E9D7</title>
    <g id="Page-1" stroke="none" stroke-width="1" fill="none" fill-rule="evenodd">
        <g id="Papco_v2" transform="translate(-1393.000000, -3281.000000)" fill="#DA1A35">
            <g id="Group-20" transform="translate(1393.922786, 3281.095791)">
                <path d="M28.6813255,15.0101544 C28.7416352,7.45243824 22.6562495,1.24310524 15.116359,1.16870897 C7.48865602,1.09372226 1.23609265,7.17492835 1.17263978,14.7306763 C1.10800822,22.429706 7.19025073,28.6850939 14.7886829,28.7346914 C22.4482105,28.7844857 28.62023,22.6873376 28.6813255,15.0101544 M14.9505565,9.18497534e-06 C23.2011977,0.00887508726 29.8411575,6.67796915 29.8502033,14.9648868 C29.8592308,23.1945312 23.1554252,29.8933444 14.904784,29.8992527 C6.69912944,29.9051533 -0.013123459,23.1583171 1.92674581e-05,14.9176511 C0.0132006421,6.66242072 6.69932589,-0.0090351255 14.9505565,9.18497534e-06" id="Fill-11"></path>
                <path d="M14.855554,21.5551169 L14.855554,21.5484252 C16.1650798,21.5484252 17.4753914,21.5732239 18.7843278,21.5421271 C20.4700525,21.5023703 21.5220343,20.4324811 21.5361786,18.7343568 C21.5571986,16.20882 21.559556,13.6826927 21.5359822,11.1571559 C21.5198734,9.42557292 20.4229049,8.34544932 18.6892467,8.33344357 C16.2012263,8.3161238 13.7128129,8.3186824 11.224596,8.33108178 C9.4153052,8.34033211 8.34210696,9.38955568 8.32521238,11.2014394 C8.30183501,13.694108 8.30733557,16.1873671 8.32737332,18.6802325 C8.34171406,20.4805041 9.40489343,21.5252009 11.2214529,21.551771 C12.432558,21.5694844 13.6442524,21.5551169 14.855554,21.5551169 M15.0191956,7.45977945 C16.2943429,7.4603699 17.5698831,7.43852338 18.8446375,7.4654871 C20.9118653,7.50918015 22.3726564,8.9449494 22.3979983,11.0036398 C22.4302158,13.6238449 22.4298229,16.2452309 22.3979983,18.8654359 C22.3730493,20.9162537 20.9152049,22.4018173 18.8652646,22.4356696 C16.250142,22.4787722 13.6332513,22.4811339 11.0183251,22.4346855 C8.90453906,22.3970937 7.47478676,20.907397 7.45612415,18.7888747 C7.43353257,16.2340124 7.43176453,13.6785596 7.45278452,11.1235004 C7.47085779,8.9512475 8.92811288,7.4971744 11.0955294,7.46312532 C12.4030907,7.44245969 13.7112413,7.45938582 15.0191956,7.45977945" id="Fill-27"></path>
                <path d="M14.8706805,18.759687 C16.9880026,18.7929488 18.6890503,17.1566245 18.751128,15.0270805 C18.8126164,12.9117073 17.0646175,11.1074993 14.94317,11.0972192 C12.8590477,11.0870305 11.1440521,12.7949957 11.1202819,14.9040708 C11.0965116,17.0283008 12.7484472,18.7264251 14.8706805,18.759687 M14.9321689,19.754794 C12.2221616,19.7595098 10.0881414,17.5998531 10.108572,14.8733676 C10.1282169,12.2797326 12.2750062,10.1293262 14.870484,10.1037402 C17.5535779,10.0773669 19.7439788,12.2592638 19.7451579,14.959376 C19.7461398,17.6140238 17.6024936,19.7498659 14.9321689,19.754794" id="Fill-31"></path>
                <path d="M19.6446937,9.13284919 C20.0102844,9.6363033 20.4147719,9.96026165 20.3646776,10.1808919 C20.2945454,10.4910731 19.8869148,10.7244963 19.6236738,10.9907877 C19.3810598,10.7335498 18.9748043,10.4942222 18.9439619,10.21376 C18.9154769,9.95376674 19.2885326,9.64968675 19.6446937,9.13284919" id="Fill-33"></path>
            </g>
        </g>
    </g>
</svg>