<?xml version="1.0" encoding="UTF-8"?>
<svg width="19px" height="30px" viewBox="0 0 19 30" version="1.1" xmlns="http://www.w3.org/2000/svg" xmlns:xlink="http://www.w3.org/1999/xlink">
    <title>FBD2577E-638C-4C41-8470-1E439CF6D1E2</title>
    <defs>
        <polygon id="path-1" points="0 0 18.4668889 0 18.4668889 29.9846649 0 29.9846649"></polygon>
    </defs>
    <g id="Page-1" stroke="none" stroke-width="1" fill="none" fill-rule="evenodd">
        <g id="Papco_v2" transform="translate(-239.000000, -3177.000000)">
            <g id="Group-3" transform="translate(239.000000, 3177.000002)">
                <mask id="mask-2" fill="white">
                    <use xlink:href="#path-1"></use>
                </mask>
                <g id="Clip-2"></g>
                <path d="M9.25294444,5.59115997 C7.21105556,5.58087605 5.56061111,7.19243161 5.5435,9.21320939 C5.52672222,11.2068761 7.20927778,12.9016538 9.20894444,12.9051037 C11.2048333,12.9085427 12.8583889,11.2735427 12.8681015,9.28709828 C12.8779444,7.22454272 11.2903889,5.60143161 9.25294444,5.59115997 M18.4669444,9.04143161 C18.4543889,10.2736538 18.0715,11.4153205 17.6737222,12.5479872 C16.2558333,16.5850983 14.4041667,20.4350983 12.5801667,24.2966538 C11.7903889,25.9689872 10.9718333,27.6284316 10.2226111,29.3187649 C10.0058333,29.8075427 9.69683333,29.9682094 9.23005556,29.9839872 C8.71494444,30.0012094 8.41672222,29.7124316 8.21116667,29.2727649 C7.70216667,28.1837649 7.16294444,27.1084316 6.6715,26.0116538 C4.81983333,21.8798761 2.95361111,17.7543205 1.15883333,13.5978761 C0.6795,12.4876538 0.308277778,11.2969872 0.109944444,10.1060983 C-0.287833333,7.71720939 0.413833333,5.53887605 1.88783333,3.66265383 C4.25172222,0.653431609 7.40372222,-0.558012835 11.1316111,0.238764942 C15.0075,1.06709828 17.3536111,3.60343161 18.2722778,7.44820939 C18.3957222,7.96520939 18.4048333,8.50965383 18.4669444,9.04143161" id="Fill-1" fill="#DA1A35" mask="url(#mask-2)"></path>
            </g>
        </g>
    </g>
</svg>