<?xml version="1.0" encoding="UTF-8"?>
<svg width="190px" height="123px" viewBox="0 0 190 123" version="1.1" xmlns="http://www.w3.org/2000/svg" xmlns:xlink="http://www.w3.org/1999/xlink">
    <title>DF091ACC-AB03-4521-B52C-AD38337CD394</title>
    <defs>
        <polygon id="path-1" points="0 0 171 0 171 86 0 86"></polygon>
        <polygon id="path-3" points="0 123 190 123 190 0 0 0"></polygon>
    </defs>
    <g id="Page-1" stroke="none" stroke-width="1" fill="none" fill-rule="evenodd">
        <g id="Papco_v2" transform="translate(-222.000000, -10.000000)">
            <g id="papco-logo---hrein-snilld" transform="translate(222.000000, 10.000000)">
                <line x1="177.5" y1="99.408" x2="177.5" y2="99.592" id="Stroke-1" stroke="#FFFFFF" stroke-width="1.313" stroke-linecap="round"></line>
                <path d="M11,89.5535573 C11,89.5535573 11,94 15.4470495,94 L174.547427,94 C174.547427,94 179,94 179,89.5535573 L179,15.4566988 C179,15.4566988 179,11 174.547427,11 L15.4470495,11 C15.4470495,11 11,11 11,15.4566988 L11,89.5535573" id="Fill-2" fill="#DA1A35"></path>
                <g id="Group-6" transform="translate(10.000000, 10.000000)">
                    <mask id="mask-2" fill="white">
                        <use xlink:href="#path-1"></use>
                    </mask>
                    <g id="Clip-5"></g>
                    <path d="M165.224765,86.0051513 L5.7705696,86.0051513 C1.53496993,86.0051513 0,82.5450533 0,80.2198293 L0,5.79047329 C0,1.54103542 3.4511122,-0.00277378451 5.7705696,-0.00277378451 L165.224765,-0.00277378451 C169.461946,-0.00277378451 171.005615,3.46287183 171.005615,5.79047329 L171.005615,80.2198293 C171.005615,84.4645121 167.547385,86.0051513 165.224765,86.0051513 M5.7705696,2.62915146 C5.24705075,2.63707656 2.62075753,2.82252387 2.62075753,5.79047329 L2.62075753,80.2198293 C2.62945648,80.7413008 2.81134369,83.3763961 5.7705696,83.3763961 L165.216856,83.3763961 C165.753819,83.368471 168.379322,83.1806462 168.379322,80.2198293 L168.379322,5.79047329 C168.373786,5.27137934 168.183991,2.62915146 165.224765,2.62915146 L5.7705696,2.62915146" id="Fill-4" fill="#FFFFFF" mask="url(#mask-2)"></path>
                </g>
                <g id="Group-66">
                    <path d="M150.491324,37.4543071 C150.491324,35.3115544 152.229314,33.577471 154.379722,33.577471 C156.520667,33.577471 158.257079,35.3115544 158.257079,37.4543071 C158.257079,39.594693 156.520667,41.3366657 154.379722,41.3366657 C152.229314,41.3366657 150.491324,39.594693 150.491324,37.4543071 M154.379722,51.375888 C162.058735,51.375888 168.293893,45.1424974 168.293893,37.4543071 C168.293893,29.76375 162.058735,23.5327261 154.379722,23.5327261 C146.695188,23.5327261 140.456876,29.76375 140.456876,37.4543071 C140.456876,45.1424974 146.695188,51.375888 154.379722,51.375888" id="Fill-7" fill="#FFFFFF"></path>
                    <path d="M64.5696404,37.4543071 C64.5696404,35.3115544 66.302899,33.5751042 68.4525182,33.5751042 C70.5989832,33.5751042 72.3298761,35.3115544 72.3298761,37.4543071 C72.3298761,39.594693 70.5989832,41.3366657 68.4525182,41.3366657 C66.302899,41.3366657 64.5696404,39.594693 64.5696404,37.4543071 M54.3845774,37.2278822 C54.3845774,45.4320373 61.0029758,51.1857542 68.7923883,51.1857542 C69.0108199,51.1857542 69.9460541,51.2599143 70.0485671,50.9198825 L72.4773372,41.558357 L72.4773372,50.9301387 L82.4542198,50.9301387 L82.4542198,36.5028492 C82.4542198,28.611902 75.4383864,23.2534425 68.4233414,23.2534425 C60.5463986,23.2534425 54.3845774,29.4450194 54.3845774,37.2278822" id="Fill-9" fill="#FFFFFF"></path>
                    <path d="M34.6670651,37.4569895 C34.6670651,35.3142368 36.397958,33.5746309 38.5475772,33.5746309 C40.6790595,33.5746309 42.4225695,35.3142368 42.4225695,37.4569895 C42.4225695,39.5973753 40.6790595,41.3361923 38.5475772,41.3361923 C36.397958,41.3361923 34.6670651,39.5973753 34.6670651,37.4569895 M24.3487352,36.9717933 L24.3487352,61.5385001 L34.3224636,61.5385001 L34.3224636,41.8821367 C34.3224636,41.8821367 35.5234431,48.0910703 36.2607483,50.983313 C36.8852892,51.3146665 37.9072651,51.2673303 38.5475772,51.2673303 C46.2053,51.2673303 52.4144348,45.2792991 52.4144348,37.3433826 C52.4144348,29.8508486 46.1004213,23.2561248 38.2684264,23.2561248 C30.9813277,23.2561248 24.3487352,29.5321181 24.3487352,36.9717933" id="Fill-11" fill="#FFFFFF"></path>
                    <path d="M95.1879931,37.4569895 C95.1879931,35.3142368 96.9401772,33.5746309 99.0637739,33.5746309 C101.215759,33.5746309 102.949017,35.3142368 102.949017,37.4569895 C102.949017,39.5973753 101.215759,41.3361923 99.0637739,41.3361923 C96.9401772,41.3361923 95.1879931,39.5973753 95.1879931,37.4569895 M84.9011776,36.9717933 L84.9011776,61.5385025 L94.8560086,61.5385025 C95.0697089,61.5463895 94.8560086,41.8821367 94.8560086,41.8821367 C94.8560086,41.8821367 96.068028,48.0910703 96.816373,50.983313 C97.4219884,51.3146665 98.4597356,51.2673303 99.0811222,51.2673303 C106.745153,51.2673303 112.967694,45.2792991 112.967694,37.3433826 C112.967694,29.8508486 106.626869,23.2561248 98.8051257,23.2561248 C91.5132956,23.2561248 84.8854344,29.5321181 84.9011776,36.9717933" id="Fill-13" fill="#FFFFFF"></path>
                    <path d="M140.238444,45.3821764 C137.722933,49.0696676 133.467854,51.504327 128.659993,51.504327 C120.934454,51.504327 114.656714,45.2346452 114.656714,37.4912293 C114.656714,29.7635922 120.934454,23.4939104 128.659993,23.4939104 C133.296736,23.4939104 137.393314,25.7415917 139.945888,29.2073916 L132.537351,36.3764615 C132.06658,34.7110156 130.540713,33.480274 128.718347,33.480274 C126.537185,33.480274 124.766864,35.256171 124.766864,37.4438931 C124.766864,39.6260926 126.537185,41.4027786 128.718347,41.4027786 C130.591181,41.4027786 132.187229,40.0742088 132.616996,38.3503816 L140.238444,45.3821764" id="Fill-15" fill="#FFFFFF"></path>
                    <polygon id="Fill-17" fill="#FFFFFF" points="24.3298886 73.2584737 24.3298886 76.1215258 28.373633 76.1215258 28.373633 77.4019704 24.3298886 77.4019704 24.3298886 81.3821572 22.8521239 81.3821572 22.8521239 71.9780291 29.0715101 71.9780291 29.0715101 73.2584737"></polygon>
                    <polygon id="Fill-19" fill="#FFFFFF" points="34.0321152 77.5128161 34.0321152 81.3817627 32.5567163 81.3817627 32.5567163 77.5128161 29.646135 71.9776346 31.2579551 71.9776346 33.2924443 76.113242 35.3285107 71.9776346 36.9403308 71.9776346"></polygon>
                    <path d="M43.6477578,81.3819994 L41.5982859,77.4152246 L39.7514744,77.4152246 L39.7514744,81.3819994 L38.2784411,81.3819994 L38.2784411,71.9778713 L42.0485546,71.9778713 C43.8930005,71.9778713 45.0671689,73.1241966 45.0671689,74.7217939 C45.0671689,76.0685092 44.219465,76.9300284 43.1288842,77.2179903 L45.3676109,81.3819994 L43.6477578,81.3819994 Z M41.938156,73.2591048 L39.7514744,73.2591048 L39.7514744,76.2002617 L41.938156,76.2002617 C42.9230696,76.2002617 43.5925585,75.6598399 43.5925585,74.7399395 C43.5925585,73.8145164 42.9230696,73.2591048 41.938156,73.2591048 L41.938156,73.2591048 Z" id="Fill-21" fill="#FFFFFF"></path>
                    <mask id="mask-4" fill="white">
                        <use xlink:href="#path-3"></use>
                    </mask>
                    <g id="Clip-24"></g>
                    <polygon id="Fill-23" fill="#FFFFFF" mask="url(#mask-4)" points="47.2277491 81.3819994 48.6992052 81.3819994 48.6992052 71.9794492 47.2277491 71.9794492"></polygon>
                    <path d="M56.608558,81.3819994 L54.5590861,77.4152246 L52.7154288,77.4152246 L52.7154288,81.3819994 L51.2368756,81.3819994 L51.2368756,71.9778713 L55.0093548,71.9778713 C56.8538007,71.9778713 58.0311233,73.1241966 58.0311233,74.7217939 C58.0311233,76.0685092 57.1826309,76.9300284 56.0896844,77.2179903 L58.328411,81.3819994 L56.608558,81.3819994 Z M54.9013219,73.2591048 L52.7154288,73.2591048 L52.7154288,76.2002617 L54.9013219,76.2002617 C55.8838698,76.2002617 56.5557243,75.6598399 56.5557243,74.7399395 C56.5557243,73.8145164 55.8838698,73.2591048 54.9013219,73.2591048 L54.9013219,73.2591048 Z" id="Fill-25" fill="#FFFFFF" mask="url(#mask-4)"></path>
                    <polygon id="Fill-26" fill="#FFFFFF" mask="url(#mask-4)" points="63.4815041 73.2584737 63.4815041 81.3821572 62.0061051 81.3821572 62.0061051 73.2584737 59.3265725 73.2584737 59.3265725 71.9780291 66.1578825 71.9780291 66.1578825 73.2584737"></polygon>
                    <path d="M71.7875822,81.3819994 L71.7875822,79.2384578 L68.576559,79.2384578 L67.4307788,81.3819994 L65.8181701,81.3819994 L70.9264728,71.9778713 L78.0046027,71.9778713 L78.0046027,73.2591048 L73.2629812,73.2591048 L73.2629812,76.0180173 L77.3090913,76.0180173 L77.3090913,77.2960951 L73.2629812,77.2960951 L73.2629812,80.0952433 L78.0046027,80.0952433 L78.0046027,81.3819994 L71.7875822,81.3819994 Z M71.7875822,73.2591048 L69.2192368,78.0266507 L71.7875822,78.0266507 L71.7875822,73.2591048 Z" id="Fill-27" fill="#FFFFFF" mask="url(#mask-4)"></path>
                    <polygon id="Fill-28" fill="#FFFFFF" mask="url(#mask-4)" points="85.8735023 81.3789226 83.1387703 76.7431292 81.500139 78.6460451 81.500139 81.3789226 80.0247401 81.3789226 80.0247401 71.9779502 81.500139 71.9779502 81.500139 76.7036823 85.4784328 71.9779502 87.2802963 71.9779502 84.1244724 75.6622856 87.6091266 81.3789226"></polygon>
                    <path d="M90.3384175,81.4606564 C89.3400984,81.4606564 88.6445869,81.1916289 87.9750981,80.5462785 L88.9608002,79.6074436 C89.3006703,79.9372192 89.6271348,80.1802118 90.3384175,80.1802118 C91.4321526,80.1802118 92.1008529,79.5348614 92.1008529,78.3056977 L92.1008529,71.9776346 L93.5762518,71.9776346 L93.5762518,78.4090484 C93.5762518,80.3640341 92.127664,81.4606564 90.3384175,81.4606564" id="Fill-29" fill="#FFFFFF" mask="url(#mask-4)"></path>
                    <path d="M101.431825,81.3766346 L100.762336,79.4863418 L96.924406,79.4863418 L96.2557057,81.3766346 L94.6825251,81.3766346 L98.2491896,71.9780291 L99.4407064,71.9780291 L103.004217,81.3766346 L101.431825,81.3766346 Z M98.8768848,74.1018473 L97.3589035,78.2769015 L100.351495,78.2769015 L98.8768848,74.1018473 Z" id="Fill-30" fill="#FFFFFF" mask="url(#mask-4)"></path>
                    <path d="M108.069937,79.4790047 L105.854867,79.4790047 L105.854867,81.3819205 L104.379468,81.3819205 L104.379468,71.9777924 L105.854867,71.9777924 L105.854867,73.7860358 L108.069937,73.7860358 C109.966428,73.7860358 111.183967,75.0033655 111.183967,76.6372539 C111.183967,78.2790316 109.966428,79.4790047 108.069937,79.4790047 M107.972944,75.0664804 L105.854867,75.0664804 L105.854867,78.1977711 L107.972944,78.1977711 C108.998074,78.1977711 109.695951,77.6313144 109.695951,76.6372539 C109.695951,75.6495048 108.998074,75.0664804 107.972944,75.0664804" id="Fill-31" fill="#FFFFFF" mask="url(#mask-4)"></path>
                    <path d="M112.71425,81.4606564 C111.715931,81.4606564 111.018054,81.1916289 110.348565,80.5462785 L111.331113,79.6074436 C111.674137,79.9372192 112.000602,80.1802118 112.71425,80.1802118 C113.811139,80.1802118 114.47432,79.5348614 114.47432,78.3056977 L114.47432,71.9776346 L115.952085,71.9776346 L115.952085,78.4090484 C115.952085,80.3640341 114.501131,81.4606564 112.71425,81.4606564" id="Fill-32" fill="#FFFFFF" mask="url(#mask-4)"></path>
                    <path d="M124.06599,80.4536573 C123.396501,81.0997967 122.538546,81.457974 121.497645,81.457974 C120.459897,81.457974 119.611405,81.0997967 118.947436,80.4536573 C117.988545,79.5290233 118.001941,78.4884155 118.001941,76.6770163 C118.001941,74.8719286 117.988545,73.8257982 118.947436,72.903531 C119.611405,72.2573916 120.459897,71.8984253 121.497645,71.8984253 C122.538546,71.8984253 123.396501,72.2573916 124.06599,72.903531 C125.022516,73.8257982 124.998911,74.8719286 124.998911,76.6770163 C124.998911,78.4884155 125.022516,79.5290233 124.06599,80.4536573 M122.946233,73.7626833 C122.603997,73.403717 122.071718,73.1765031 121.497645,73.1765031 C120.928303,73.1765031 120.391293,73.403717 120.048268,73.7626833 C119.571977,74.2628693 119.47735,74.7898792 119.47735,76.6770163 C119.47735,78.5665202 119.571977,79.0911633 120.048268,79.5976608 C120.391293,79.9534713 120.928303,80.1767405 121.497645,80.1767405 C122.071718,80.1767405 122.603997,79.9534713 122.946233,79.5976608 C123.425678,79.0911633 123.52346,78.5665202 123.52346,76.6770163 C123.52346,74.7898792 123.425678,74.2628693 122.946233,73.7626833 M121.837515,71.0660969 L120.788728,71.0660969 L121.813858,68.9312336 L123.354708,68.9312336 L121.837515,71.0660969" id="Fill-33" fill="#FFFFFF" mask="url(#mask-4)"></path>
                    <polygon id="Fill-34" fill="#FFFFFF" mask="url(#mask-4)" points="133.152192 81.3789226 128.658179 74.7605307 128.658179 81.3789226 127.18278 81.3789226 127.18278 71.9779502 128.534375 71.9779502 133.028388 78.5774075 133.028388 71.9779502 134.506153 71.9779502 134.506153 81.3789226"></polygon>
                    <path d="M140.374787,81.4606564 C138.39392,81.4606564 136.892498,80.1486543 136.892498,78.2110252 L136.892498,71.9776346 L138.367897,71.9776346 L138.367897,78.1423877 C138.367897,79.3975864 139.160402,80.1802118 140.374787,80.1802118 C141.594692,80.1802118 142.398236,79.3975864 142.398236,78.1423877 L142.398236,71.9776346 L143.873635,71.9776346 L143.873635,78.2110252 C143.873635,80.1486543 142.356442,81.4606564 140.374787,81.4606564" id="Fill-35" fill="#FFFFFF" mask="url(#mask-4)"></path>
                    <path d="M148.844886,81.4606564 C147.384469,81.4606564 146.329374,81.1316697 145.401237,80.2172918 L146.386939,79.2784569 C147.095067,79.9687767 147.877321,80.1802118 148.870908,80.1802118 C150.142858,80.1802118 150.880952,79.6476794 150.880952,78.738824 C150.880952,78.3293658 150.757148,77.9901229 150.501654,77.7605422 C150.254046,77.538851 150.006437,77.4465454 149.437096,77.3652849 L148.285796,77.2090753 C147.490137,77.1017799 146.865596,76.838275 146.442138,76.4580074 C145.962693,76.0209363 145.730856,75.4229221 145.730856,74.6560755 C145.730856,73.0245539 146.961012,71.9018967 148.984461,71.9018967 C150.267451,71.9018967 151.170354,72.2151046 152.003075,72.9685394 L151.06311,73.8679275 C150.456706,73.3117269 149.761194,73.1428944 148.941879,73.1428944 C147.793733,73.1428944 147.166038,73.7756218 147.166038,74.6063724 C147.166038,74.9479821 147.271705,75.2572454 147.532719,75.474992 C147.780327,75.6919496 148.177763,75.849737 148.62882,75.9160077 L149.735172,76.0714283 C150.635709,76.2055476 151.141966,76.4161937 151.550441,76.7727932 C152.084297,77.2232762 152.342945,77.8946615 152.342945,78.701744 C152.342945,80.4271491 150.880952,81.4606564 148.844886,81.4606564" id="Fill-36" fill="#FFFFFF" mask="url(#mask-4)"></path>
                    <polygon id="Fill-37" fill="#FFFFFF" mask="url(#mask-4)" points="157.614559 73.2584737 157.614559 81.3821572 156.141526 81.3821572 156.141526 73.2584737 153.465148 73.2584737 153.465148 71.9780291 160.293303 71.9780291 160.293303 73.2584737"></polygon>
                    <path d="M166.742319,81.3766346 L166.07283,79.4863418 L162.2349,79.4863418 L161.563046,81.3766346 L159.993019,81.3766346 L163.557318,71.9780291 L164.748046,71.9780291 L168.314711,81.3766346 L166.742319,81.3766346 Z M164.187379,74.1018473 L162.669398,78.2769015 L165.661989,78.2769015 L164.187379,74.1018473 Z" id="Fill-38" fill="#FFFFFF" mask="url(#mask-4)"></path>
                    <polygon id="Fill-39" fill="#231F20" mask="url(#mask-4)" points="14.8565025 107.07373 20.0278902 107.07373 20.0278902 106.474138 14.8565025 106.474138"></polygon>
                    <polygon id="Fill-40" fill="#231F20" mask="url(#mask-4)" points="30.713059 105.863738 26.0108656 105.863738 26.0108656 110.109796 25.3256054 110.109796 25.3256054 101.080413 26.0108656 101.080413 26.0108656 105.255467 30.713059 105.255467 30.713059 101.080413 31.3951649 101.080413 31.3951649 110.109796 30.713059 110.109796"></polygon>
                    <path d="M36.300413,104.496195 C35.2492602,104.496195 34.6641474,105.370337 34.6641474,106.346252 L34.6641474,110.111848 L34.0191039,110.111848 L34.0191039,103.999953 L34.6641474,103.999953 L34.6641474,104.811769 C35.0197887,104.240579 35.7287057,103.923426 36.4557596,103.923426 C37.048758,103.923426 37.4777356,104.063857 37.9232729,104.506451 L37.4540787,104.975079 C37.0858204,104.609801 36.8090353,104.496195 36.300413,104.496195" id="Fill-41" fill="#231F20" mask="url(#mask-4)"></path>
                    <path d="M41.0895059,109.606533 C41.8141941,109.606533 42.2589429,109.384842 42.7786051,108.868088 L43.2580506,109.250723 C42.6382411,109.872405 42.0665339,110.185613 41.0524435,110.185613 C39.3696528,110.185613 38.4580755,109.100036 38.4580755,107.052745 C38.4580755,105.081191 39.3696528,103.926977 40.9026168,103.926977 C42.4355807,103.926977 43.3495238,105.025177 43.3495238,106.904424 L43.3495238,107.19712 L39.103119,107.19712 C39.103119,108.757637 39.7860134,109.606533 41.0895059,109.606533 M42.4860487,105.523785 C42.2195148,104.869756 41.6138994,104.493433 40.9026168,104.493433 C40.1936998,104.493433 39.5825645,104.869756 39.3168192,105.523785 C39.1796095,105.91352 39.1401814,106.079985 39.103119,106.675633 L42.701326,106.675633 C42.6626865,106.090242 42.6516466,105.884329 42.4860487,105.523785" id="Fill-42" fill="#231F20" mask="url(#mask-4)"></path>
                    <path d="M45.3620121,101.880947 L46.3620121,101.880947 L46.3620121,101.083332 L45.3620121,101.083332 L45.3620121,101.880947 Z M45.4584688,110.115871 L46.2675239,110.115871 L46.2675239,104.003188 L45.4584688,104.003188 L45.4584688,110.115871 Z" id="Fill-43" fill="#231F20" mask="url(#mask-4)"></path>
                    <path d="M52.599116,106.322189 C52.599116,105.138784 52.0171574,104.496589 50.9131711,104.496589 C49.8115504,104.496589 49.1901637,105.155351 49.1901637,106.322189 L49.1901637,110.112242 L48.5474859,110.112242 L48.5474859,103.997981 L49.1901637,103.997981 L49.1901637,104.725381 C49.6483181,104.190481 50.2413165,103.923821 50.9920272,103.923821 C51.6638818,103.923821 52.2064123,104.113955 52.6125215,104.509212 C53.0312478,104.912359 53.2473137,105.484338 53.2473137,106.208582 L53.2473137,110.112242 L52.599116,110.112242 L52.599116,106.322189" id="Fill-44" fill="#231F20" mask="url(#mask-4)"></path>
                    <path d="M60.7392807,110.185929 C59.6747224,110.185929 58.8901036,109.911379 58.2679284,109.314153 L58.7103115,108.868404 C59.1795057,109.363856 59.8513603,109.616316 60.7124697,109.616316 C61.9197576,109.616316 62.5513955,109.197391 62.5513955,108.375318 C62.5513955,107.727601 62.1957542,107.437272 61.3874785,107.347334 L60.3733881,107.258184 C59.1432319,107.157989 58.5344622,106.625456 58.5344622,105.65822 C58.5344622,104.596311 59.3955716,103.926503 60.7258752,103.926503 C61.5743676,103.926503 62.3219241,104.163973 62.8676088,104.572642 L62.4386312,104.999457 C61.9670713,104.659426 61.3977298,104.480337 60.7258752,104.480337 C59.7117848,104.480337 59.1692544,104.896896 59.1692544,105.65822 C59.1692544,106.306726 59.5485526,106.601788 60.409662,106.688571 L61.3977298,106.77851 C62.4118201,106.878705 63.1869763,107.180868 63.1869763,108.375318 C63.1869763,109.48772 62.2462222,110.185929 60.7392807,110.185929" id="Fill-45" fill="#231F20" mask="url(#mask-4)"></path>
                    <path d="M69.1797298,106.322189 C69.1797298,105.138784 68.594617,104.496589 67.4937849,104.496589 C66.3921642,104.496589 65.7676233,105.155351 65.7676233,106.322189 L65.7676233,110.112242 L65.1249455,110.112242 L65.1249455,103.997981 L65.7676233,103.997981 L65.7676233,104.725381 C66.2265662,104.190481 66.8219303,103.923821 67.5671211,103.923821 C68.2421299,103.923821 68.7870261,104.113955 69.1899811,104.509212 C69.6087074,104.912359 69.8247733,105.484338 69.8247733,106.208582 L69.8247733,110.112242 L69.1797298,110.112242 L69.1797298,106.322189" id="Fill-46" fill="#231F20" mask="url(#mask-4)"></path>
                    <path d="M72.1328934,101.880947 L73.1328934,101.880947 L73.1328934,101.083332 L72.1328934,101.083332 L72.1328934,101.880947 Z M72.2276614,110.115871 L73.0341767,110.115871 L73.0341767,104.003188 L72.2276614,104.003188 L72.2276614,110.115871 Z" id="Fill-47" fill="#231F20" mask="url(#mask-4)"></path>
                    <path d="M75.291083,108.525611 L75.291083,101.08278 L75.9369151,101.08278 L75.9369151,108.514566 C75.9369151,109.211197 76.1498267,109.540184 76.8745149,109.540184 L77.316898,109.540184 L77.316898,110.117686 L76.7585964,110.117686 C75.757123,110.117686 75.291083,109.488114 75.291083,108.525611" id="Fill-48" fill="#231F20" mask="url(#mask-4)"></path>
                    <path d="M78.9239079,108.525611 L78.9239079,101.08278 L79.5721057,101.08278 L79.5721057,108.514566 C79.5721057,109.211197 79.7881716,109.540184 80.5097055,109.540184 L80.9520887,109.540184 L80.9520887,110.117686 L80.393787,110.117686 C79.3931022,110.117686 78.9239079,109.488114 78.9239079,108.525611" id="Fill-49" fill="#231F20" mask="url(#mask-4)"></path>
                    <path d="M86.3236133,109.324567 C85.7810828,110.0354 85.2117413,110.186086 84.5138642,110.186086 C83.8688207,110.186086 83.3365415,109.969918 83.0179626,109.653554 C82.3957874,109.031872 82.2301895,108.017299 82.2301895,107.054796 C82.2301895,106.089926 82.3957874,105.078509 83.0179626,104.453671 C83.3365415,104.137307 83.8688207,103.923505 84.5138642,103.923505 C85.2117413,103.923505 85.7810828,104.074192 86.3236133,104.785813 L86.3236133,101.083332 L86.971811,101.083332 L86.971811,110.111926 L86.3236133,110.111926 L86.3236133,109.324567 Z M84.6037602,104.496273 C83.1070701,104.496273 82.8807529,105.787763 82.8807529,107.054796 C82.8807529,108.322617 83.1070701,109.616474 84.6037602,109.616474 C86.0972961,109.616474 86.3236133,108.322617 86.3236133,107.054796 C86.3236133,105.787763 86.0972961,104.496273 84.6037602,104.496273 L84.6037602,104.496273 Z" id="Fill-50" fill="#231F20" mask="url(#mask-4)"></path>
                    <path d="M93.4996036,110.115082 L92.8545602,110.115082 L92.8545602,104.479706 L92.0163191,104.479706 L92.0163191,104.000032 L92.8545602,104.000032 L92.8545602,102.680141 C92.8545602,101.757084 93.3600282,101.083332 94.3212849,101.083332 L94.8827409,101.083332 L94.8827409,101.654523 L94.4372035,101.654523 C93.7897944,101.654523 93.4996036,102.023745 93.4996036,102.669095 L93.4996036,104.000032 L94.8827409,104.000032 L94.8827409,104.479706 L93.4996036,104.479706 L93.4996036,110.115082" id="Fill-51" fill="#231F20" mask="url(#mask-4)"></path>
                    <path d="M97.3034676,112.484181 C96.9982942,112.776876 96.5559111,112.874705 96.1498018,112.874705 L95.8469941,112.874705 L95.8469941,112.307459 L96.0843512,112.307459 C96.784594,112.307459 96.9880429,112.077878 97.2009546,111.469608 L97.6961713,110.115003 L95.4676959,103.999953 L96.1758244,103.999953 L98.0123846,109.356046 L99.8505219,103.999953 L100.560227,103.999953 L97.7221939,111.773349 C97.6094295,112.102335 97.4698541,112.339016 97.3034676,112.484181" id="Fill-52" fill="#231F20" mask="url(#mask-4)"></path>
                    <path d="M104.248015,104.496195 C103.193708,104.496195 102.61175,105.370337 102.61175,106.346252 L102.61175,110.111848 L101.96434,110.111848 L101.96434,103.999953 L102.61175,103.999953 L102.61175,104.811769 C102.967391,104.240579 103.675519,103.923426 104.400208,103.923426 C104.995572,103.923426 105.425338,104.063857 105.870875,104.506451 L105.401681,104.975079 C105.030268,104.609801 104.754272,104.496195 104.248015,104.496195" id="Fill-53" fill="#231F20" mask="url(#mask-4)"></path>
                    <path d="M107.074063,101.880947 L108.074063,101.880947 L108.074063,101.083332 L107.074063,101.083332 L107.074063,101.880947 Z M107.170709,110.115871 L107.977416,110.115871 L107.977416,104.003188 L107.170709,104.003188 L107.170709,110.115871 Z" id="Fill-54" fill="#231F20" mask="url(#mask-4)"></path>
                    <path d="M112.535641,104.496195 C111.486854,104.496195 110.899375,105.370337 110.899375,106.346252 L110.899375,110.111848 L110.253543,110.111848 L110.253543,103.999953 L110.899375,103.999953 L110.899375,104.811769 C111.260537,104.240579 111.966299,103.923426 112.690988,103.923426 C113.283197,103.923426 113.715329,104.063857 114.158501,104.506451 L113.689307,104.975079 C113.323414,104.609801 113.044263,104.496195 112.535641,104.496195" id="Fill-55" fill="#231F20" mask="url(#mask-4)"></path>
                    <path d="M120.947229,104.496195 C119.901596,104.496195 119.319637,105.370337 119.319637,106.346252 L119.319637,110.111848 L118.668285,110.111848 L118.668285,103.999953 L119.319637,103.999953 L119.319637,104.811769 C119.672124,104.240579 120.380253,103.923426 121.104941,103.923426 C121.697939,103.923426 122.130071,104.063857 122.572454,104.506451 L122.10326,104.975079 C121.739733,104.609801 121.455851,104.496195 120.947229,104.496195" id="Fill-56" fill="#231F20" mask="url(#mask-4)"></path>
                    <path d="M125.744049,109.606533 C126.465583,109.606533 126.908755,109.384842 127.427629,108.868088 L127.90944,109.250723 C127.292785,109.872405 126.718712,110.185613 125.704621,110.185613 C124.021042,110.185613 123.107099,109.100036 123.107099,107.052745 C123.107099,105.081191 124.021042,103.926977 125.554795,103.926977 C127.087759,103.926977 127.996182,105.025177 127.996182,106.904424 L127.996182,107.19712 L123.752931,107.19712 C123.752931,108.757637 124.437403,109.606533 125.744049,109.606533 M127.138227,105.523785 C126.871693,104.869756 126.262923,104.493433 125.554795,104.493433 C124.842723,104.493433 124.237108,104.869756 123.968209,105.523785 C123.828633,105.91352 123.794725,106.079985 123.752931,106.675633 L127.351138,106.675633 C127.319596,106.090242 127.303825,105.884329 127.138227,105.523785" id="Fill-57" fill="#231F20" mask="url(#mask-4)"></path>
                    <polygon id="Fill-58" fill="#231F20" mask="url(#mask-4)" points="132.132582 106.749004 130.733674 108.360013 130.733674 110.112242 130.090207 110.112242 130.090207 101.082859 130.733674 101.082859 130.733674 107.450369 133.765693 103.997981 134.587375 103.997981 132.569445 106.280375 135.035278 110.112242 134.231733 110.112242"></polygon>
                    <path d="M138.644367,110.185929 C137.579809,110.185929 136.79519,109.911379 136.173015,109.314153 L136.616186,108.868404 C137.086958,109.363856 137.759601,109.616316 138.61519,109.616316 C139.824844,109.616316 140.45727,109.197391 140.45727,108.375318 C140.45727,107.727601 140.101629,107.437272 139.28941,107.347334 L138.27532,107.258184 C137.050684,107.157989 136.441914,106.625456 136.441914,105.65822 C136.441914,104.596311 137.298292,103.926503 138.630961,103.926503 C139.479454,103.926503 140.233319,104.163973 140.775061,104.572642 L140.346083,104.999457 C139.875312,104.659426 139.30597,104.480337 138.630961,104.480337 C137.616871,104.480337 137.071975,104.896896 137.071975,105.65822 C137.071975,106.306726 137.453639,106.601788 138.317902,106.688571 L139.30597,106.77851 C140.320061,106.878705 141.09364,107.180868 141.09364,108.375318 C141.09364,109.48772 140.153674,110.185929 138.644367,110.185929" id="Fill-59" fill="#231F20" mask="url(#mask-4)"></path>
                    <path d="M143.056922,108.514803 L143.056922,104.480179 L142.219469,104.480179 L142.219469,103.999716 L143.056922,103.999716 L143.056922,102.047887 L143.699599,102.047887 L143.699599,103.999716 L145.082737,103.999716 L145.082737,104.480179 L143.699599,104.480179 L143.699599,108.525848 C143.699599,109.171198 143.992156,109.540421 144.640354,109.540421 L145.082737,109.540421 L145.082737,110.109244 L144.526801,110.109244 C143.560024,110.109244 143.056922,109.440226 143.056922,108.514803" id="Fill-60" fill="#231F20" mask="url(#mask-4)"></path>
                    <path d="M150.999552,109.387761 C150.546129,109.920294 149.950765,110.186165 149.200054,110.186165 C148.530565,110.186165 147.983303,109.996032 147.577194,109.603141 C147.158468,109.197627 146.942402,108.628015 146.942402,107.900615 L146.942402,104.000111 L147.593754,104.000111 L147.593754,107.790953 C147.593754,108.971203 148.175712,109.616553 149.281276,109.616553 C150.382897,109.616553 150.999552,108.957791 150.999552,107.790953 L150.999552,104.000111 L151.646961,104.000111 L151.646961,110.109639 L150.999552,110.109639 L150.999552,109.387761" id="Fill-61" fill="#231F20" mask="url(#mask-4)"></path>
                    <path d="M156.389371,104.496195 C155.335853,104.496195 154.753894,105.370337 154.753894,106.346252 L154.753894,110.111848 L154.107273,110.111848 L154.107273,103.999953 L154.753894,103.999953 L154.753894,104.811769 C155.108747,104.240579 155.81451,103.923426 156.539198,103.923426 C157.132196,103.923426 157.564328,104.063857 158.012231,104.506451 L157.543037,104.975079 C157.171624,104.609801 156.895628,104.496195 156.389371,104.496195" id="Fill-62" fill="#231F20" mask="url(#mask-4)"></path>
                    <path d="M159.218494,101.880947 L160.218494,101.880947 L160.218494,101.083332 L159.218494,101.083332 L159.218494,101.880947 Z M159.307515,110.115871 L160.120571,110.115871 L160.120571,104.003188 L159.307515,104.003188 L159.307515,110.115871 Z" id="Fill-63" fill="#231F20" mask="url(#mask-4)"></path>
                    <path d="M166.452759,106.322189 C166.452759,105.138784 165.8708,104.496589 164.766025,104.496589 C163.662828,104.496589 163.041441,105.155351 163.041441,106.322189 L163.041441,110.112242 L162.393243,110.112242 L162.393243,103.997981 L163.041441,103.997981 L163.041441,104.725381 C163.499595,104.190481 164.094959,103.923821 164.842516,103.923821 C165.516736,103.923821 166.060055,104.113955 166.46301,104.509212 C166.884891,104.912359 167.097802,105.484338 167.097802,106.208582 L167.097802,110.112242 L166.452759,110.112242 L166.452759,106.322189" id="Fill-64" fill="#231F20" mask="url(#mask-4)"></path>
                    <path d="M173.535936,106.322189 C173.535936,105.138784 172.951611,104.496589 171.849991,104.496589 C170.746793,104.496589 170.127772,105.155351 170.127772,106.322189 L170.127772,110.112242 L169.48194,110.112242 L169.48194,103.997981 L170.127772,103.997981 L170.127772,104.725381 C170.583561,104.190481 171.178925,103.923821 171.926481,103.923821 C172.600701,103.923821 173.140866,104.113955 173.552495,104.509212 C173.968067,104.912359 174.180979,105.484338 174.180979,106.208582 L174.180979,110.112242 L173.535936,110.112242 L173.535936,106.322189" id="Fill-65" fill="#231F20" mask="url(#mask-4)"></path>
                </g>
            </g>
        </g>
    </g>
</svg>