<?xml version="1.0" encoding="UTF-8"?>
<svg width="27px" height="25px" viewBox="0 0 27 25" version="1.1" xmlns="http://www.w3.org/2000/svg" xmlns:xlink="http://www.w3.org/1999/xlink">
    <title>F5F5F69E-D654-4A6E-B617-CF6F460144C4</title>
    <defs>
        <polygon id="path-1" points="0 0 25.7877846 0 25.7877846 6.95586781 0 6.95586781"></polygon>
        <polygon id="path-3" points="0 0 25.821438 0 25.821438 12.9289367 0 12.9289367"></polygon>
        <polygon id="path-5" points="0 0 8.95720972 0 8.95720972 13.608838 0 13.608838"></polygon>
    </defs>
    <g id="Page-1" stroke="none" stroke-width="1" fill="none" fill-rule="evenodd">
        <g id="Papco_v2" transform="translate(-570.000000, -3260.000000)">
            <g id="Group-14" transform="translate(570.000000, 3260.032961)">
                <g id="Group-3" transform="translate(0.256129, 17.202906)">
                    <mask id="mask-2" fill="white">
                        <use xlink:href="#path-1"></use>
                    </mask>
                    <g id="Clip-2"></g>
                    <path d="M25.7821812,6.88682061 C25.6447987,6.90976163 25.5074492,6.95257828 25.3700338,6.95277604 C22.8814934,6.95683028 20.3929529,6.95574256 17.9044124,6.95574256 C12.0867869,6.95574256 6.26919443,6.95620401 0.451601916,6.95297381 C0.303770766,6.95287493 0.155906654,6.91154154 0.00807550321,6.88942455 C0.00540564296,6.86984557 0.00270282148,6.8502666 0,6.83068762 C0.173244265,6.69996335 0.345796344,6.56834913 0.519798717,6.43867962 C3.36029929,4.32207375 6.2017887,2.20678633 9.03919091,0.0860273406 C9.17670519,-0.0167457982 9.25963567,-0.0256782936 9.40061088,0.0852362709 C10.3588929,0.839158658 11.3254812,1.58246753 12.2902896,2.32801776 C12.6642678,2.61698893 13.1288894,2.6151431 13.5071526,2.32290877 C14.4763778,1.57406241 15.4466907,0.826666349 16.4102795,0.0706674039 C16.5355652,-0.0276230066 16.610552,-0.0195145422 16.7317834,0.0710299775 C19.6975697,2.2860581 22.6664213,4.49690015 25.6345807,6.70873104 C25.6865606,6.74742753 25.7367606,6.78856316 25.7877846,6.82851218 C25.7859058,6.84795931 25.7840599,6.86737348 25.7821812,6.88682061" id="Fill-1" fill="#DA1A35" mask="url(#mask-2)"></path>
                </g>
                <g id="Group-6" transform="translate(0.237759, 0.000000)">
                    <mask id="mask-4" fill="white">
                        <use xlink:href="#path-3"></use>
                    </mask>
                    <g id="Clip-5"></g>
                    <path d="M4.92335414,12.9289367 C3.2647117,11.7068988 1.63972269,10.5097137 0,9.3016184 C0.326415136,9.06113321 0.642645249,8.82809726 0.958941285,8.59506131 C1.98901292,7.83612881 3.01789795,7.07564714 4.05087018,6.32070295 C4.15693944,6.24321108 4.19270238,6.16001692 4.1915817,6.03275358 C4.18604421,5.4121594 4.18703305,4.79146634 4.18963699,4.17080623 C4.19342753,3.27043707 4.79137734,2.67545377 5.69088951,2.67476158 C6.72349916,2.67397051 7.75610882,2.67199284 8.78871847,2.67743144 C8.93490156,2.67818955 9.04894744,2.63751538 9.16497099,2.55138767 C10.1968555,1.78569812 11.2326294,1.02518348 12.2665575,0.262262679 C12.7416938,-0.0883130439 13.0876879,-0.0877856641 13.567142,0.265921376 C14.6012349,1.02867738 15.6367452,1.78948866 16.6685308,2.55534302 C16.7852136,2.64193219 16.9011053,2.6780577 17.0463655,2.67733256 C18.0789751,2.67212468 19.1115848,2.67387163 20.1441944,2.67479454 C21.0335875,2.67558561 21.6348994,3.27343654 21.6377011,4.16075305 C21.6397117,4.79238925 21.640305,5.42409137 21.636086,6.0556946 C21.6353608,6.16459853 21.6654874,6.23694845 21.7562956,6.30346423 C23.1031577,7.28956557 24.4473829,8.27922673 25.7919706,9.26839347 C25.8000791,9.27435945 25.8047596,9.28487409 25.821438,9.30712292 C24.193845,10.5062527 22.5666806,11.705053 20.9068186,12.9279808 C20.9068186,12.8262624 20.9068186,12.7632076 20.9068186,12.7001527 C20.9068186,9.8769568 20.9068845,7.05376088 20.9067527,4.23056496 C20.9067197,3.66844401 20.6437549,3.40587479 20.0781401,3.40580887 C15.2995847,3.40547926 10.5210293,3.4054463 5.74244089,3.40584183 C5.1860552,3.40590775 4.92342006,3.66880658 4.9233871,4.22189615 C4.92332117,7.04505911 4.92335414,9.86825503 4.92335414,12.691418 L4.92335414,12.9289367 Z" id="Fill-4" fill="#DA1A35" mask="url(#mask-4)"></path>
                </g>
                <path d="M17.3467313,16.7528094 C20.3377988,14.4374143 23.3108036,12.1360277 26.3051013,9.81812758 L26.3051013,23.4286137 C23.3173629,21.202148 20.3416553,18.9846148 17.3467313,16.7528094" id="Fill-7" fill="#DA1A35"></path>
                <g id="Group-11" transform="translate(0.000000, 9.819070)">
                    <mask id="mask-6" fill="white">
                        <use xlink:href="#path-5"></use>
                    </mask>
                    <g id="Clip-10"></g>
                    <path d="M8.95720972,6.93359409 C5.96182429,9.16586095 2.99129164,11.3796036 -6.59224679e-06,13.608838 L-6.59224679e-06,0 C2.99251121,2.31641689 5.96393381,4.6165839 8.95720972,6.93359409" id="Fill-9" fill="#DA1A35" mask="url(#mask-6)"></path>
                </g>
                <path d="M13.896438,10.2645941 C13.896438,10.2042751 13.9016129,10.1434616 13.895581,10.0837358 C13.8551046,9.68200426 13.7035488,9.34289905 13.3029379,9.18982706 C12.9452756,9.05316977 12.6086095,9.14434056 12.3483805,9.41102993 C11.7665817,10.0071669 11.5302167,10.7342259 11.6773556,11.5523897 C11.8049156,12.2617814 12.4262349,12.4955096 13.0222071,12.0932506 C13.0449174,12.0779566 13.0667048,12.0611464 13.0881296,12.0440725 C13.66004,11.5884493 13.8646963,10.9647897 13.896438,10.2645941 M13.5150105,12.5289652 C13.3643118,12.6377044 13.220403,12.7559034 13.0632109,12.8525127 C12.3685198,13.2793608 11.5328206,13.1007768 11.0768678,12.4223356 C10.612444,11.7312374 10.5785269,10.981567 10.8358882,10.2139986 C11.0730443,9.50665048 11.4647227,8.90886547 12.1524259,8.55370814 C12.8758262,8.18012547 13.5466204,8.29700602 14.1094005,8.89093456 C14.1272985,8.90982135 14.1470752,8.92692823 14.1882109,8.96602026 C14.2192603,8.82886855 14.2479037,8.71485563 14.2702843,8.59962314 C14.2889074,8.50377186 14.3372286,8.46032895 14.4392766,8.46299881 C14.6423508,8.4683715 14.8457876,8.46804188 15.0489277,8.46322954 C15.1850576,8.4600323 15.2196339,8.51184737 15.190661,8.64448339 C14.9821482,9.59894194 14.7788433,10.5545212 14.5742199,11.5098038 C14.5466643,11.6386163 14.5201305,11.7676595 14.49508,11.8969335 C14.4455063,12.1528775 14.5943263,12.2957315 14.8317131,12.1859706 C15.0524216,12.0839226 15.2724378,11.9528028 15.4492419,11.7878318 C16.6233541,10.6926617 16.4495825,8.79643469 15.1091808,7.91195284 C13.7460029,7.01237475 11.3927683,7.25075042 10.398163,8.97969917 C9.83871187,9.95218753 9.71467874,10.9869397 10.0327876,12.0626626 C10.2659884,12.8513591 10.7715149,13.4216544 11.5339083,13.7311605 C12.6930891,14.201814 13.8750791,14.2461139 15.054564,13.8093445 C15.5340512,13.6318153 15.9430672,13.3345049 16.2686253,12.929675 C16.3121012,12.8756186 16.4015909,12.8366584 16.4728861,12.8311868 C16.6530852,12.8173431 16.8350642,12.8260778 17.016351,12.8266382 C17.2510679,12.8273633 17.2752285,12.8665872 17.1499758,13.0735508 C16.8507537,13.5680023 16.4360354,13.9473203 15.9492309,14.2503329 C15.0794498,14.7917872 14.1167509,14.9279171 13.1165421,14.8830568 C12.4706667,14.8540839 11.8376461,14.7467621 11.2409818,14.4871924 C10.0335128,13.9618891 9.33295465,13.0310638 9.13637382,11.7407632 C8.93043201,10.3890228 9.24475037,9.15146018 10.0854267,8.06706843 C10.7233256,7.24429001 11.58691,6.8001703 12.6111475,6.66588622 C13.4586798,6.55477389 14.2886108,6.61545552 15.0797794,6.97120616 C17.1042916,7.8814637 17.6642041,10.4790399 16.1965391,12.1478015 C15.7954008,12.6038861 15.3335479,12.9646798 14.7141074,13.0608278 C14.5423134,13.0875264 14.3628065,13.0896359 14.1893315,13.0745726 C13.8559616,13.0456326 13.6969895,12.9077558 13.5150105,12.5289652" id="Fill-12" fill="#DA1A35"></path>
            </g>
        </g>
    </g>
</svg>