<?xml version="1.0" encoding="UTF-8"?>
<svg width="30px" height="30px" viewBox="0 0 30 30" version="1.1" xmlns="http://www.w3.org/2000/svg" xmlns:xlink="http://www.w3.org/1999/xlink">
    <title>157AFE05-5AE6-4FA7-9FD2-EAC70685F444</title>
    <g id="Page-1" stroke="none" stroke-width="1" fill="none" fill-rule="evenodd">
        <g id="Papco_v2" transform="translate(-1503.000000, -3281.000000)" fill="#DA1A35">
            <g id="Group-27" transform="translate(1503.149629, 3281.005982)">
                <path d="M14.7746613,28.7334937 C22.4106152,28.7842722 28.6113161,22.7194018 28.6824305,15.1305888 C28.7541342,7.4626559 22.6467463,1.21159802 15.0310267,1.1580642 C7.4929042,1.10512082 1.22580364,7.23927028 1.17079805,14.7243615 C1.11422088,22.438546 7.17780078,28.6829122 14.7746613,28.7334937 M14.827506,0.000788911886 C22.993085,-0.0832513172 29.7542536,6.55789494 29.8493347,14.7556552 C29.945398,23.0319448 23.3494426,29.8108619 15.124929,29.8884072 C6.83814129,29.966543 0.0816874802,23.3830637 0.000750691549,15.151648 C-0.0809718911,6.83146852 6.5198947,0.0862068497 14.827506,0.000788911886" id="Fill-6"></path>
                <path d="M13.8047164,17.7591782 C13.4106407,19.3289788 13.0373885,21.1343676 11.6502656,22.4555902 C11.5459514,22.4463399 11.4414408,22.4370896 11.3369302,22.4280361 C11.3899713,21.3140602 11.3738625,20.1910308 11.5172699,19.0888639 C11.639068,18.1524156 12.0101592,17.2498196 12.1510128,16.3141586 C12.2985457,15.3350014 12.2678997,14.3302581 12.3828221,13.344606 C12.4566867,12.7100727 12.539588,12.0318464 12.8226703,11.4780075 C13.163312,10.811787 13.8487209,10.5478573 14.5910998,10.8422934 C15.2914388,11.1201969 15.4165765,11.7584696 15.2798483,12.4054023 C15.1109026,13.2044733 14.8551267,13.9860277 14.6182097,14.7693535 C14.4135104,15.4462021 14.3447534,16.208075 15.0470569,16.496213 C15.6022204,16.7241253 16.4273041,16.7558126 16.9535897,16.5021174 C18.4964963,15.7583515 19.3111683,12.5370719 18.5320535,10.7655353 C17.8201241,9.14692444 15.7187143,8.40138723 13.6123933,9.02017524 C11.6137261,9.60727595 10.2810194,11.6077089 10.6521107,13.5303998 C10.7301007,13.9340684 11.0729034,14.290895 11.1302663,14.6927923 C11.192737,15.1303132 11.0650454,15.5949947 11.0202552,16.0478672 C10.6760774,15.9337142 10.2580349,15.9075377 10.0008838,15.6900566 C8.88368111,14.7457357 8.65187186,13.4404551 8.92238147,12.1103758 C9.09289878,11.2723353 9.46261489,10.3998521 9.97652421,9.72005125 C12.3777144,6.54364549 17.8340719,6.51353272 20.1054097,9.60491417 C22.3578884,12.6705128 20.3554887,17.8880923 16.7154941,18.2677495 C15.8183137,18.3612369 14.8696638,17.9595364 13.8047164,17.7591782" id="Fill-23"></path>
            </g>
        </g>
    </g>
</svg>