<?xml version="1.0" encoding="UTF-8"?>
<svg width="16px" height="16px" viewBox="0 0 16 16" version="1.1" xmlns="http://www.w3.org/2000/svg" xmlns:xlink="http://www.w3.org/1999/xlink">
    <title>5BE4DCDA-1E37-44E6-A7FD-7BC28EE98CA9</title>
    <defs>
        <polygon id="path-1" points="0 0 16 0 16 16 0 16"></polygon>
    </defs>
    <g id="Page-1" stroke="none" stroke-width="1" fill="none" fill-rule="evenodd">
        <g id="Papco_v2" transform="translate(-1636.000000, -98.000000)">
            <g id="Group-3" transform="translate(1636.000000, 98.000000)">
                <mask id="mask-2" fill="white">
                    <use xlink:href="#path-1"></use>
                </mask>
                <g id="Clip-2"></g>
                <path d="M1.56828795,6.28637704 C1.56677225,8.89925112 3.68172581,11.0186369 6.29269237,11.0207087 C8.91127852,11.0227774 11.0206838,8.91355781 11.0182447,6.29550818 C11.0158754,3.69165434 8.90839343,1.58221296 6.30034895,1.57305307 C3.71072463,1.56402461 1.56980529,3.69642324 1.56828795,6.28637704 M10.1636651,11.2876914 C7.28993372,13.4918452 3.34306101,12.7874535 1.30434032,10.1431195 C-0.633069442,7.63028133 -0.390463234,4.02325893 1.88742375,1.8046505 C4.20514713,-0.452811481 7.79996528,-0.610665614 10.2943078,1.4343772 C12.8520851,3.53143425 13.4194855,7.3649607 11.2410231,10.2192 C11.3094514,10.2603826 11.402588,10.2945042 11.4664297,10.3580525 C12.8829334,11.7686474 14.2951464,13.1836045 15.7112801,14.594643 C15.9375005,14.820075 16.0515724,15.0778172 15.9775219,15.3936733 C15.8376321,15.990118 15.1191716,16.2022044 14.6665088,15.7760722 C14.3262905,15.4557799 14.002643,15.1178537 13.6720046,14.7873582 C12.5452303,13.6611225 11.4186409,12.534739 10.2917556,11.4085773 C10.2529918,11.3698716 10.2120828,11.3332731 10.1636651,11.2876914" id="Fill-1" fill="#000000" mask="url(#mask-2)"></path>
            </g>
        </g>
    </g>
</svg>