<?xml version="1.0" encoding="UTF-8"?>
<svg width="31px" height="30px" viewBox="0 0 31 30" version="1.1" xmlns="http://www.w3.org/2000/svg" xmlns:xlink="http://www.w3.org/1999/xlink">
    <title>DFD8FE1C-3398-43E8-BE86-5AFBB1A594D8</title>
    <g id="Page-1" stroke="none" stroke-width="1" fill="none" fill-rule="evenodd">
        <g id="Papco_v2" transform="translate(-1357.000000, -3281.000000)" fill="#DA1A35">
            <g id="Group-17" transform="translate(1357.454307, 3281.093895)">
                <path d="M14.9505682,1.17059301 C7.36097625,1.15428961 1.14298782,7.33921748 1.15240664,14.8957527 C1.16165043,22.5111358 7.30852449,28.7220434 14.8513617,28.7378203 C22.5030314,28.7539275 28.676426,22.5977347 28.6819303,14.9455471 C28.6874271,7.32799899 22.5658949,1.1871578 14.9505682,1.17059301 M29.8339734,14.9758567 C29.8081659,23.2985948 23.1149685,29.9413155 14.7953739,29.9011512 C6.60032759,29.8610148 -0.0751894298,23.0525753 0.000639697434,14.8115157 C0.0768617217,6.54703499 6.78223892,-0.0492373236 15.0566504,0.000276936393 C23.2560186,0.0499577009 29.8592425,6.74168554 29.8339734,14.9758567" id="Fill-1"></path>
                <path d="M8.37300042,9.46208941 C10.1327862,11.3464012 12.1461871,12.4397115 14.6954995,12.6016907 C14.7127869,12.2694661 14.7198591,11.9884135 14.7432365,11.7087386 C14.9225939,9.55537997 17.2436332,8.1156744 19.1305212,9.15663172 C20.1086383,9.69629988 20.8944324,9.82304908 21.9638981,9.38867722 C21.702818,9.79116497 21.441738,10.1936527 21.1396001,10.6597119 C21.5214961,10.5996831 21.8611555,10.546543 22.2080836,10.4920251 C22.2157451,10.5676022 22.2452124,10.6494775 22.2228173,10.6679781 C21.2649343,11.4587829 21.0478587,12.4993466 20.8244967,13.7050385 C19.4444459,21.1493889 11.7381635,22.4080242 7.71882686,19.8218682 C8.46729571,19.6957094 9.16193766,19.6447342 9.81375384,19.4502805 C10.454176,19.2591726 11.051183,18.9224212 11.6851224,18.5244602 C10.555347,18.1613356 9.63144962,17.6344604 9.1312917,16.45278 C9.39433626,16.3659844 9.63773597,16.2854868 10.0072556,16.1632644 C8.85449574,15.4950757 8.00092693,14.7086009 7.95043967,13.2667303 C8.32762082,13.3373871 8.62386518,13.3926923 9.11439712,13.4846051 C8.04434206,12.2413214 7.57581235,11.0375977 8.37300042,9.46208941" id="Fill-15"></path>
            </g>
        </g>
    </g>
</svg>