<?xml version="1.0" encoding="UTF-8"?>
<svg width="31px" height="30px" viewBox="0 0 31 30" version="1.1" xmlns="http://www.w3.org/2000/svg" xmlns:xlink="http://www.w3.org/1999/xlink">
    <title>4698E6AB-6EAB-49C8-8C4F-BC614CB3A82B</title>
    <g id="Page-1" stroke="none" stroke-width="1" fill="none" fill-rule="evenodd">
        <g id="Papco_v2" transform="translate(-1430.000000, -3281.000000)" fill="#DA1A35">
            <g id="Group-21" transform="translate(1430.407613, 3281.095979)">
                <path d="M1.16356549,14.8570801 C1.13245002,22.4941129 7.21056711,28.681993 14.7956408,28.7347396 C22.4176467,28.7878798 28.6562623,22.6094468 28.6838546,14.9810739 C28.7108749,7.43595393 22.578931,1.2159929 15.0683113,1.16954444 C7.37067265,1.1221119 1.1951171,7.20134983 1.16356549,14.8570801 M6.02299079e-05,14.9367904 C0.0236945971,6.58885992 6.67878097,-0.0339824943 15.0095732,0.000131195235 C23.1953864,0.0339188618 29.8544018,6.74847731 29.832063,14.9466312 C29.809415,23.2551986 23.084393,29.9467296 14.806249,29.89799 C6.61316717,29.8491091 -0.0230601497,23.1436042 6.02299079e-05,14.9367904" id="Fill-13"></path>
                <path d="M9.26215754,20.631313 C10.7192162,19.9544644 11.9324822,20.1979252 13.2960314,20.6948844 C15.9905192,21.6767971 18.9781082,20.400842 20.4667951,17.8985295 C21.9132455,15.4674641 21.505222,12.3290437 19.4796413,10.3073547 C17.431862,8.26322863 14.205588,7.90482756 11.7140315,9.44451541 C9.28966033,10.9426752 8.09721784,13.9439151 9.08476453,16.5997438 C9.58394021,17.9420257 10.1298706,19.1650374 9.26215754,20.631313 M7.31103088,22.5455408 C7.68742624,21.4132611 8.06617897,20.4781905 8.29346991,19.5074964 C8.41507154,18.9877066 8.42489396,18.3458912 8.22982059,17.8629059 C7.06566668,14.9827075 7.36544712,12.2961755 9.36607881,9.94403321 C11.3394041,7.62397181 13.9492227,6.81210777 16.8945753,7.56965072 C19.8375705,8.32660323 21.7295662,10.2815718 22.3470038,13.2786786 C22.9212229,16.0667674 22.0945675,18.4992104 19.9269546,20.3530159 C17.7041396,22.254057 15.1247706,22.6681569 12.3929575,21.6645945 C11.6256296,21.3827547 10.9879578,21.3494929 10.2467575,21.6240505 C9.34191564,21.9594242 8.40485622,22.2072149 7.31103088,22.5455408" id="Fill-29"></path>
                <path d="M17.3264084,18.2341787 C14.918539,18.1942251 11.7301795,15.5106454 11.4590806,13.4495933 C11.3928774,12.9469264 11.5610374,12.3312874 11.821921,11.8853035 C12.2878969,11.0889878 13.0560106,11.1868052 13.4300485,12.0232711 C13.7178456,12.6670547 14.1653553,13.3181205 13.4357456,13.979027 C13.3636489,14.0443698 13.357559,14.2246528 13.3766145,14.3425453 C13.4777855,14.9656632 15.294345,16.5262135 15.9192477,16.5029893 C16.085836,16.4966912 16.2534066,16.344356 16.4087974,16.2414215 C16.6895223,16.0558244 17.011305,15.6513685 17.2270055,15.7041151 C17.7507372,15.8318484 18.3072759,16.086134 18.6779742,16.4608708 C18.8416158,16.6261958 18.718639,17.3390617 18.4905623,17.5697294 C18.1285077,17.9356095 17.5690223,18.1054613 17.3264084,18.2341787" id="Fill-35"></path>
            </g>
        </g>
    </g>
</svg>